<svg width="67" height="18" viewBox="0 0 67 18" fill="none" xmlns="http://www.w3.org/2000/svg">
<path d="M4.824 0.199999H7.416V17H3.816V5.312L2.136 6.488L0.264 3.512L4.824 0.199999ZM12.2505 0.199999H20.5545V3.8H15.4185L15.0825 5.936H15.6585C16.3785 5.936 17.0585 6.064 17.6985 6.32C18.3385 6.56 18.8985 6.92 19.3785 7.4C19.8585 7.864 20.2345 8.432 20.5065 9.104C20.7785 9.776 20.9145 10.544 20.9145 11.408C20.9145 12.352 20.7545 13.192 20.4345 13.928C20.1305 14.648 19.6985 15.264 19.1385 15.776C18.5945 16.272 17.9465 16.648 17.1945 16.904C16.4585 17.16 15.6585 17.288 14.7945 17.288C14.3465 17.288 13.8825 17.24 13.4025 17.144C12.9225 17.048 12.4585 16.904 12.0105 16.712C11.5785 16.52 11.1705 16.288 10.7865 16.016C10.4025 15.728 10.0825 15.4 9.8265 15.032L11.8425 12.272C12.1625 12.656 12.6105 12.992 13.1865 13.28C13.7625 13.552 14.3305 13.688 14.8905 13.688C15.5465 13.688 16.0745 13.496 16.4745 13.112C16.8745 12.712 17.0745 12.2 17.0745 11.576C17.0745 10.888 16.8105 10.32 16.2825 9.872C15.7545 9.408 14.9865 9.176 13.9785 9.176C13.4025 9.176 12.8345 9.224 12.2745 9.32C11.7145 9.4 11.3225 9.496 11.0985 9.608L12.2505 0.199999ZM23.7638 8.96H39.6998V12.08H23.7638V8.96ZM42.369 14.12C43.057 13.448 43.777 12.752 44.529 12.032C45.281 11.296 45.969 10.552 46.593 9.8C47.233 9.032 47.761 8.272 48.177 7.52C48.593 6.752 48.801 6 48.801 5.264C48.801 4.656 48.665 4.232 48.393 3.992C48.121 3.736 47.745 3.608 47.265 3.608C46.753 3.608 46.361 3.784 46.089 4.136C45.817 4.472 45.593 4.896 45.417 5.408L42.417 4.04C42.545 3.448 42.753 2.904 43.041 2.408C43.329 1.912 43.697 1.488 44.145 1.136C44.593 0.783999 45.113 0.511999 45.705 0.319999C46.297 0.112 46.961 0.0079999 47.697 0.0079999C48.513 0.0079999 49.225 0.136 49.833 0.391999C50.457 0.631999 50.977 0.967999 51.393 1.4C51.809 1.816 52.121 2.296 52.329 2.84C52.537 3.384 52.641 3.952 52.641 4.544C52.641 5.328 52.529 6.08 52.305 6.8C52.097 7.504 51.817 8.168 51.465 8.792C51.113 9.416 50.721 9.992 50.289 10.52C49.873 11.032 49.457 11.496 49.041 11.912C48.625 12.312 48.233 12.664 47.865 12.968C47.513 13.256 47.233 13.48 47.025 13.64H53.217V17H42.369V14.12ZM54.9081 8.6C54.9081 7.288 55.0281 6.104 55.2681 5.048C55.5081 3.992 55.8681 3.096 56.3481 2.36C56.8281 1.608 57.4281 1.032 58.1481 0.631999C58.8841 0.216 59.7401 0.0079999 60.7161 0.0079999C61.6921 0.0079999 62.5401 0.216 63.2601 0.631999C63.9961 1.032 64.6041 1.608 65.0841 2.36C65.5641 3.096 65.9241 3.992 66.1641 5.048C66.4041 6.104 66.5241 7.288 66.5241 8.6C66.5241 9.912 66.4041 11.096 66.1641 12.152C65.9401 13.208 65.5881 14.112 65.1081 14.864C64.6281 15.6 64.0281 16.176 63.3081 16.592C62.5881 16.992 61.7401 17.192 60.7641 17.192C59.7881 17.192 58.9321 16.992 58.1961 16.592C57.4601 16.176 56.8441 15.6 56.3481 14.864C55.8681 14.112 55.5081 13.208 55.2681 12.152C55.0281 11.096 54.9081 9.912 54.9081 8.6ZM58.7481 8.6C58.7481 9.576 58.7961 10.4 58.8921 11.072C58.9881 11.728 59.1241 12.264 59.3001 12.68C59.4761 13.08 59.6841 13.376 59.9241 13.568C60.1801 13.744 60.4601 13.832 60.7641 13.832C61.1001 13.832 61.3881 13.744 61.6281 13.568C61.8841 13.392 62.0841 13.104 62.2281 12.704C62.3881 12.288 62.5001 11.752 62.5641 11.096C62.6441 10.424 62.6841 9.592 62.6841 8.6C62.6841 7.608 62.6441 6.784 62.5641 6.128C62.4841 5.456 62.3641 4.92 62.2041 4.52C62.0441 4.104 61.8361 3.808 61.5801 3.632C61.3401 3.456 61.0521 3.368 60.7161 3.368C60.0441 3.368 59.5481 3.76 59.2281 4.544C58.9081 5.328 58.7481 6.68 58.7481 8.6Z" fill="#6C76BC"/>
</svg>
