<svg width="36" height="17" viewBox="0 0 36 17" fill="none" xmlns="http://www.w3.org/2000/svg">
<path d="M0.96 9.08V7.544L12.72 0.967999V4.856L5.904 8.312L12.72 11.816V15.704L0.96 9.08ZM19.2146 0.199999H21.8066V17H18.2066V5.312L16.5266 6.488L14.6546 3.512L19.2146 0.199999ZM24.6971 14.12C25.3851 13.448 26.1051 12.752 26.8571 12.032C27.6091 11.296 28.2971 10.552 28.9211 9.8C29.5611 9.032 30.0891 8.272 30.5051 7.52C30.9211 6.752 31.1291 6 31.1291 5.264C31.1291 4.656 30.9931 4.232 30.7211 3.992C30.4491 3.736 30.0731 3.608 29.5931 3.608C29.0811 3.608 28.6891 3.784 28.4171 4.136C28.1451 4.472 27.9211 4.896 27.7451 5.408L24.7451 4.04C24.8731 3.448 25.0811 2.904 25.3691 2.408C25.6571 1.912 26.0251 1.488 26.4731 1.136C26.9211 0.783999 27.4411 0.511999 28.0331 0.319999C28.6251 0.112 29.2891 0.0079999 30.0251 0.0079999C30.8411 0.0079999 31.5531 0.136 32.1611 0.391999C32.7851 0.631999 33.3051 0.967999 33.7211 1.4C34.1371 1.816 34.4491 2.296 34.6571 2.84C34.8651 3.384 34.9691 3.952 34.9691 4.544C34.9691 5.328 34.8571 6.08 34.6331 6.8C34.4251 7.504 34.1451 8.168 33.7931 8.792C33.4411 9.416 33.0491 9.992 32.6171 10.52C32.2011 11.032 31.7851 11.496 31.3691 11.912C30.9531 12.312 30.5611 12.664 30.1931 12.968C29.8411 13.256 29.5611 13.48 29.3531 13.64H35.5451V17H24.6971V14.12Z" fill="#6C76BC"/>
</svg>
