<svg width="65" height="17" viewBox="0 0 65 17" fill="none" xmlns="http://www.w3.org/2000/svg">
<path d="M4.824 0.199999H7.416V17H3.816V5.312L2.136 6.488L0.264 3.512L4.824 0.199999ZM10.3065 14.12C10.9945 13.448 11.7145 12.752 12.4665 12.032C13.2185 11.296 13.9065 10.552 14.5305 9.8C15.1705 9.032 15.6985 8.272 16.1145 7.52C16.5305 6.752 16.7385 6 16.7385 5.264C16.7385 4.656 16.6025 4.232 16.3305 3.992C16.0585 3.736 15.6825 3.608 15.2025 3.608C14.6905 3.608 14.2985 3.784 14.0265 4.136C13.7545 4.472 13.5305 4.896 13.3545 5.408L10.3545 4.04C10.4825 3.448 10.6905 2.904 10.9785 2.408C11.2665 1.912 11.6345 1.488 12.0825 1.136C12.5305 0.783999 13.0505 0.511999 13.6425 0.319999C14.2345 0.112 14.8985 0.0079999 15.6345 0.0079999C16.4505 0.0079999 17.1625 0.136 17.7705 0.391999C18.3945 0.631999 18.9145 0.967999 19.3305 1.4C19.7465 1.816 20.0585 2.296 20.2665 2.84C20.4745 3.384 20.5785 3.952 20.5785 4.544C20.5785 5.328 20.4665 6.08 20.2425 6.8C20.0345 7.504 19.7545 8.168 19.4025 8.792C19.0505 9.416 18.6585 9.992 18.2265 10.52C17.8105 11.032 17.3945 11.496 16.9785 11.912C16.5625 12.312 16.1705 12.664 15.8025 12.968C15.4505 13.256 15.1705 13.48 14.9625 13.64H21.1545V17H10.3065V14.12ZM24.0216 8.96H39.9576V12.08H24.0216V8.96ZM46.7068 0.199999H49.2988V17H45.6988V5.312L44.0188 6.488L42.1468 3.512L46.7068 0.199999ZM59.3413 13.4H51.7093V10.712L57.7093 0.199999H61.8373L56.3413 9.8H59.3413V6.2H62.9413V9.8H64.9093V13.4H62.9413V17H59.3413V13.4Z" fill="#6C76BC"/>
</svg>
