<svg width="39" height="18" viewBox="0 0 39 18" fill="none" xmlns="http://www.w3.org/2000/svg">
<path d="M0.68 15.704V11.816L7.496 8.312L0.68 4.856V0.967999L12.44 7.544V9.08L0.68 15.704ZM14.1346 14.12C14.8226 13.448 15.5426 12.752 16.2946 12.032C17.0466 11.296 17.7346 10.552 18.3586 9.8C18.9986 9.032 19.5266 8.272 19.9426 7.52C20.3586 6.752 20.5666 6 20.5666 5.264C20.5666 4.656 20.4306 4.232 20.1586 3.992C19.8866 3.736 19.5106 3.608 19.0306 3.608C18.5186 3.608 18.1266 3.784 17.8546 4.136C17.5826 4.472 17.3586 4.896 17.1826 5.408L14.1826 4.04C14.3106 3.448 14.5186 2.904 14.8066 2.408C15.0946 1.912 15.4626 1.488 15.9106 1.136C16.3586 0.783999 16.8786 0.511999 17.4706 0.319999C18.0626 0.112 18.7266 0.0079999 19.4626 0.0079999C20.2786 0.0079999 20.9906 0.136 21.5986 0.391999C22.2226 0.631999 22.7426 0.967999 23.1586 1.4C23.5746 1.816 23.8866 2.296 24.0946 2.84C24.3026 3.384 24.4066 3.952 24.4066 4.544C24.4066 5.328 24.2946 6.08 24.0706 6.8C23.8626 7.504 23.5826 8.168 23.2306 8.792C22.8786 9.416 22.4866 9.992 22.0546 10.52C21.6386 11.032 21.2226 11.496 20.8066 11.912C20.3906 12.312 19.9986 12.664 19.6306 12.968C19.2786 13.256 18.9986 13.48 18.7906 13.64H24.9826V17H14.1346V14.12ZM26.6737 8.6C26.6737 7.288 26.7937 6.104 27.0337 5.048C27.2737 3.992 27.6337 3.096 28.1137 2.36C28.5937 1.608 29.1937 1.032 29.9137 0.631999C30.6497 0.216 31.5057 0.0079999 32.4817 0.0079999C33.4577 0.0079999 34.3057 0.216 35.0257 0.631999C35.7617 1.032 36.3697 1.608 36.8497 2.36C37.3297 3.096 37.6897 3.992 37.9297 5.048C38.1697 6.104 38.2897 7.288 38.2897 8.6C38.2897 9.912 38.1697 11.096 37.9297 12.152C37.7057 13.208 37.3537 14.112 36.8737 14.864C36.3937 15.6 35.7937 16.176 35.0737 16.592C34.3537 16.992 33.5057 17.192 32.5297 17.192C31.5537 17.192 30.6977 16.992 29.9617 16.592C29.2257 16.176 28.6097 15.6 28.1137 14.864C27.6337 14.112 27.2737 13.208 27.0337 12.152C26.7937 11.096 26.6737 9.912 26.6737 8.6ZM30.5137 8.6C30.5137 9.576 30.5617 10.4 30.6577 11.072C30.7537 11.728 30.8897 12.264 31.0657 12.68C31.2417 13.08 31.4497 13.376 31.6897 13.568C31.9457 13.744 32.2257 13.832 32.5297 13.832C32.8657 13.832 33.1537 13.744 33.3937 13.568C33.6497 13.392 33.8497 13.104 33.9937 12.704C34.1537 12.288 34.2657 11.752 34.3297 11.096C34.4097 10.424 34.4497 9.592 34.4497 8.6C34.4497 7.608 34.4097 6.784 34.3297 6.128C34.2497 5.456 34.1297 4.92 33.9697 4.52C33.8097 4.104 33.6017 3.808 33.3457 3.632C33.1057 3.456 32.8177 3.368 32.4817 3.368C31.8097 3.368 31.3137 3.76 30.9937 4.544C30.6737 5.328 30.5137 6.68 30.5137 8.6Z" fill="#6C76BC"/>
</svg>
