<svg width="38" height="38" viewBox="0 0 38 38" fill="none" xmlns="http://www.w3.org/2000/svg">
<mask id="path-1-inside-1_8_19684" fill="white">
<path d="M18.6703 8.35403L4.83151 18.2549C4.70808 18.3433 4.60748 18.4598 4.53803 18.5949C4.46858 18.7299 4.43228 18.8794 4.43213 19.0313V19.0335C4.43245 19.1859 4.46913 19.336 4.53912 19.4714C4.60911 19.6067 4.71039 19.7234 4.83455 19.8118L18.6734 29.6488C18.8165 29.7505 18.9848 29.8108 19.1599 29.8231C19.335 29.8354 19.5101 29.7991 19.6659 29.7184C19.822 29.6381 19.9529 29.5163 20.0441 29.3663C20.1354 29.2164 20.1835 29.0442 20.1831 28.8687V24.2392L32.6125 24.2395C32.7381 24.2396 32.8624 24.2149 32.9784 24.1669C33.0944 24.1188 33.1998 24.0484 33.2886 23.9596C33.3773 23.8708 33.4477 23.7654 33.4957 23.6494C33.5437 23.5334 33.5683 23.409 33.5682 23.2835L33.5679 14.7179C33.5679 14.5923 33.5432 14.4679 33.4952 14.3519C33.4471 14.2358 33.3766 14.1304 33.2878 14.0416C33.199 13.9528 33.0935 13.8824 32.9775 13.8344C32.8614 13.7864 32.737 13.7617 32.6114 13.7618H20.1835V9.13075C20.1835 8.77355 19.9821 8.44561 19.664 8.28069C19.5077 8.20025 19.3322 8.16454 19.1569 8.17748C18.9815 8.19042 18.8132 8.25151 18.6703 8.35403Z"/>
</mask>
<path d="M18.6703 8.35403L19.8341 9.98061L19.8365 9.97885L18.6703 8.35403ZM4.83151 18.2549L3.66779 16.6284L3.66696 16.6289L4.83151 18.2549ZM4.43213 19.0313L2.43213 19.0293V19.0313H4.43213ZM4.43213 19.0335H2.43212L2.43213 19.0377L4.43213 19.0335ZM4.83455 19.8118L3.67503 21.4414L3.67581 21.4419L4.83455 19.8118ZM18.6734 29.6488L17.5146 31.279L17.5147 31.279L18.6734 29.6488ZM19.6659 29.7184L18.7508 27.94L18.7459 27.9426L19.6659 29.7184ZM20.1831 28.8687H18.1831L18.1831 28.8727L20.1831 28.8687ZM20.1831 24.2392L20.1832 22.2392L18.1831 22.2391V24.2392H20.1831ZM32.6125 24.2395L32.6133 22.2395H32.6126L32.6125 24.2395ZM33.5682 23.2835L31.5682 23.2836V23.2851L33.5682 23.2835ZM33.5679 14.7179L31.5679 14.7171V14.718L33.5679 14.7179ZM32.9775 13.8344L33.7419 11.9862L32.9775 13.8344ZM32.6114 13.7618V15.7618L32.613 15.7618L32.6114 13.7618ZM20.1835 13.7618H18.1835V15.7618L20.1835 15.7618V13.7618ZM19.664 8.28069L20.5847 6.50517L20.5791 6.50227L19.664 8.28069ZM17.5066 6.72745L3.66779 16.6284L5.99523 19.8815L19.8341 9.9806L17.5066 6.72745ZM3.66696 16.6289C3.28534 16.9023 2.9743 17.2625 2.75957 17.6799L6.3165 19.5098C6.24066 19.6572 6.13082 19.7844 5.99605 19.8809L3.66696 16.6289ZM2.75957 17.6799C2.54484 18.0973 2.43259 18.5599 2.43213 19.0293L6.43213 19.0332C6.43196 19.199 6.39233 19.3624 6.3165 19.5098L2.75957 17.6799ZM2.43213 19.0313V19.0335H6.43213V19.0313H2.43213ZM2.43213 19.0377C2.43312 19.5084 2.5464 19.972 2.76257 20.39L6.31566 18.5528C6.39185 18.7001 6.43178 18.8635 6.43212 19.0294L2.43213 19.0377ZM2.76257 20.39C2.97874 20.8081 3.29156 21.1685 3.67503 21.4414L5.99407 18.1822C6.12922 18.2784 6.23947 18.4054 6.31566 18.5528L2.76257 20.39ZM3.67581 21.4419L17.5146 31.279L19.8321 28.0187L5.99329 18.1817L3.67581 21.4419ZM17.5147 31.279C17.9574 31.5937 18.4783 31.7803 19.0201 31.8182L19.2997 27.828C19.4913 27.8414 19.6755 27.9074 19.8321 28.0187L17.5147 31.279ZM19.0201 31.8182C19.562 31.8562 20.1038 31.7441 20.586 31.4942L18.7459 27.9426C18.9164 27.8542 19.108 27.8146 19.2997 27.828L19.0201 31.8182ZM20.581 31.4968C21.0645 31.248 21.4699 30.8706 21.7525 30.4062L18.3357 28.3265C18.4359 28.1619 18.5795 28.0282 18.7508 27.94L20.581 31.4968ZM21.7525 30.4062C22.0352 29.9418 22.1842 29.4084 22.1831 28.8647L18.1831 28.8727C18.1827 28.6801 18.2355 28.491 18.3357 28.3265L21.7525 30.4062ZM22.1831 28.8687V24.2392H18.1831V28.8687H22.1831ZM20.1831 26.2392L32.6125 26.2395L32.6126 22.2395L20.1832 22.2392L20.1831 26.2392ZM32.6118 26.2395C33.0001 26.2397 33.3848 26.1633 33.7436 26.0147L32.2132 22.319C32.3401 22.2665 32.4761 22.2395 32.6133 22.2395L32.6118 26.2395ZM33.7436 26.0147C34.1025 25.8661 34.4285 25.6482 34.7031 25.3735L31.8741 22.5457C31.9711 22.4486 32.0864 22.3716 32.2132 22.319L33.7436 26.0147ZM34.7031 25.3735C34.9776 25.0989 35.1954 24.7727 35.3438 24.4138L31.6476 22.8849C31.7001 22.7581 31.777 22.6428 31.8741 22.5457L34.7031 25.3735ZM35.3438 24.4138C35.4923 24.0549 35.5686 23.6703 35.5682 23.2819L31.5682 23.2851C31.5681 23.1478 31.5951 23.0118 31.6476 22.8849L35.3438 24.4138ZM35.5682 23.2834L35.5679 14.7178L31.5679 14.718L31.5682 23.2836L35.5682 23.2834ZM35.5679 14.7187C35.568 14.3302 35.4916 13.9456 35.343 13.5867L31.6473 15.117C31.5948 14.9902 31.5678 14.8543 31.5679 14.7171L35.5679 14.7187ZM35.343 13.5867C35.1944 13.2278 34.9765 12.9017 34.7017 12.6271L31.8739 15.4561C31.7768 15.359 31.6998 15.2438 31.6473 15.117L35.343 13.5867ZM34.7017 12.6271C34.427 12.3525 34.1009 12.1347 33.7419 11.9862L32.213 15.6825C32.0862 15.6301 31.971 15.5531 31.8739 15.4561L34.7017 12.6271ZM33.7419 11.9862C33.383 11.8378 32.9983 11.7615 32.6098 11.7618L32.613 15.7618C32.4758 15.7619 32.3398 15.735 32.213 15.6825L33.7419 11.9862ZM32.6114 11.7618H20.1835V15.7618H32.6114V11.7618ZM22.1835 13.7618V9.13075H18.1835V13.7618H22.1835ZM22.1835 9.13075C22.1835 8.01748 21.5577 7.00972 20.5847 6.50518L18.7434 10.0562C18.4065 9.88149 18.1835 9.52962 18.1835 9.13075H22.1835ZM20.5791 6.50227C20.0953 6.25337 19.5522 6.14286 19.0097 6.18291L19.3041 10.1721C19.1122 10.1862 18.9201 10.1471 18.749 10.0591L20.5791 6.50227ZM19.0097 6.18291C18.4671 6.22295 17.9461 6.412 17.5042 6.72921L19.8365 9.97885C19.6802 10.091 19.496 10.1579 19.3041 10.1721L19.0097 6.18291Z" fill="#E36746" mask="url(#path-1-inside-1_8_19684)"/>
</svg>
