<svg width="24" height="26" viewBox="0 0 24 26" fill="none" xmlns="http://www.w3.org/2000/svg">
<g clip-path="url(#clip0_8_18338)">
<path d="M6.62 11.9271C8.06 14.8908 10.38 17.3099 13.21 18.8283L15.41 16.5245C15.68 16.2417 16.08 16.1475 16.43 16.2731C17.55 16.6606 18.76 16.87 20 16.87C20.55 16.87 21 17.3413 21 17.9173V21.5721C21 22.148 20.55 22.6193 20 22.6193C10.61 22.6193 3 14.6499 3 4.81651C3 4.24054 3.45 3.76929 4 3.76929H7.5C8.05 3.76929 8.5 4.24054 8.5 4.81651C8.5 6.12554 8.7 7.3822 9.07 8.55509C9.18 8.92162 9.1 9.33004 8.82 9.62326L6.62 11.9271Z" fill="white"/>
</g>
<defs>
<clipPath id="clip0_8_18338">
<rect width="24" height="25.1333" fill="white" transform="translate(0 0.627686)"/>
</clipPath>
</defs>
</svg>
