<svg width="24" height="26" viewBox="0 0 24 26" fill="none" xmlns="http://www.w3.org/2000/svg">
<g clip-path="url(#clip0_8_18335)">
<path fill-rule="evenodd" clip-rule="evenodd" d="M5 9.94164C5 5.88889 8.13 2.61108 12 2.61108C15.87 2.61108 19 5.88889 19 9.94164C19 15.4396 12 23.5555 12 23.5555C12 23.5555 5 15.4396 5 9.94164ZM12 4.70553C9.24 4.70553 7 7.05131 7 9.94164C7 12.9262 9.92 17.4921 12 20.2882C14.12 17.4712 17 12.9576 17 9.94164C17 7.05131 14.76 4.70553 12 4.70553ZM14.5 9.94164C14.5 11.3876 13.3807 12.5597 12 12.5597C10.6193 12.5597 9.5 11.3876 9.5 9.94164C9.5 8.49573 10.6193 7.32358 12 7.32358C13.3807 7.32358 14.5 8.49573 14.5 9.94164Z" fill="white"/>
</g>
<defs>
<clipPath id="clip0_8_18335">
<rect width="24" height="25.1333" fill="white" transform="translate(0 0.516602)"/>
</clipPath>
</defs>
</svg>
