<svg width="284" height="282" viewBox="0 0 284 282" fill="none" xmlns="http://www.w3.org/2000/svg">
<g clip-path="url(#clip0_20_11733)">
<rect width="284" height="282" fill="url(#paint0_radial_20_11733)"/>
<path fill-rule="evenodd" clip-rule="evenodd" d="M164.517 147.065C163.611 149.779 162.639 151.683 161.381 154.217L161.144 159.469L163.66 163.555L167.121 164.25C167.328 162.003 165.789 161.651 165.234 159.711C164.97 158.787 165.067 157.56 165.538 155.862L166.321 157.648C166.501 159.025 166.14 160.841 167.39 161.294C168.3 158.572 168.78 155.743 168.934 153.953C169.074 152.317 168.96 150.597 168.7 147.94L164.517 147.065Z" fill="url(#paint1_linear_20_11733)"/>
<path fill-rule="evenodd" clip-rule="evenodd" d="M177.529 89.7542C173.777 91.4476 170.328 91.8963 168.415 95.6528C166.765 98.8902 165.569 107.661 165.014 116.942C164.421 126.905 164.214 138.958 163.514 148.921C164.874 149.959 168.481 149.963 169.593 149.506C171.621 133.222 172.994 120.404 173.574 103.975L175.47 91.9359L177.524 89.7542H177.529Z" fill="url(#paint2_linear_20_11733)"/>
<path style="mix-blend-mode:multiply" opacity="0.55" fill-rule="evenodd" clip-rule="evenodd" d="M163.765 145.244C163.686 146.471 163.602 147.698 163.514 148.925C164.874 149.963 168.481 149.968 169.593 149.51C172.026 129.967 172.413 110.208 176.024 90.8628C173.372 93.0929 171.392 94.219 170.13 96.8054C167.438 102.313 167.033 107.402 167.117 113.943C167.201 120.629 166.299 140.977 163.77 145.252L163.765 145.244Z" fill="url(#paint3_linear_20_11733)"/>
<path fill-rule="evenodd" clip-rule="evenodd" d="M177.753 220.839C178.215 222.752 179.442 224.213 179.684 225.616C180.102 228.035 178.804 230.468 175.945 230.494L157.22 230.661C157.95 224.261 168.107 227.811 171.177 220.716L175.545 220.962L177.749 220.839H177.753Z" fill="url(#paint4_linear_20_11733)"/>
<path style="mix-blend-mode:multiply" opacity="0.3" fill-rule="evenodd" clip-rule="evenodd" d="M177.753 220.839C177.889 221.675 178.567 222.915 178.822 223.456C177.098 225.515 171.854 225.598 169.36 223.276C170.09 222.62 170.715 221.789 171.181 220.716L175.549 220.962L177.753 220.839Z" fill="url(#paint5_linear_20_11733)"/>
<path fill-rule="evenodd" clip-rule="evenodd" d="M199.355 229.434C196.988 231.325 196.175 232.113 193.377 232.223C191.094 232.315 190.382 231.726 189.19 230.679C187.87 229.518 187.492 228.783 187.615 227.732C187.852 225.722 189.058 223.887 189.445 221.367L193.993 221.578L196.065 220.65C196.821 221.811 198.466 223.949 199.584 225.836C200.133 226.764 199.746 228.444 199.355 229.434Z" fill="url(#paint6_linear_20_11733)"/>
<path style="mix-blend-mode:multiply" opacity="0.5" fill-rule="evenodd" clip-rule="evenodd" d="M188.684 224.169C188.992 223.311 189.286 222.396 189.445 221.367L193.993 221.578L196.065 220.65C196.364 221.107 196.799 221.714 197.283 222.401C195.29 224.305 189.713 225.37 188.679 224.169H188.684Z" fill="url(#paint7_linear_20_11733)"/>
<path fill-rule="evenodd" clip-rule="evenodd" d="M183.823 120.356C189.493 131.775 191.604 134.916 190.25 144.993C187.637 164.483 183.616 191.078 178.492 222.374C176.345 223.791 171.982 223.052 170.196 222.168C166.844 167.994 166.136 158.136 168.142 128.155L183.823 120.356Z" fill="url(#paint8_linear_20_11733)"/>
<path style="mix-blend-mode:multiply" opacity="0.5" fill-rule="evenodd" clip-rule="evenodd" d="M190.25 144.993C187.637 164.483 183.616 191.077 178.492 222.374C176.253 176.676 171.282 155.545 171.621 144.746L190.25 144.993Z" fill="url(#paint9_linear_20_11733)"/>
<path fill-rule="evenodd" clip-rule="evenodd" d="M189.132 120.356C196.628 131.775 197.956 139.076 197.872 149.088L197.283 221.244C195.554 222.66 191.09 223.087 188.776 222.027L173.416 143.136C173.002 137.924 175.294 134.603 174.696 128.15L189.132 120.351V120.356Z" fill="url(#paint10_linear_20_11733)"/>
<path style="mix-blend-mode:multiply" opacity="0.5" fill-rule="evenodd" clip-rule="evenodd" d="M189.132 120.356C196.628 131.775 197.956 139.076 197.872 149.088L197.283 221.244C193.223 207.031 191.402 171.077 190.729 164.052C184.848 162.253 179.741 159.706 175.923 156.016L173.416 143.136C173.002 137.924 175.294 134.603 174.696 128.15L189.132 120.351V120.356Z" fill="url(#paint11_linear_20_11733)"/>
<path fill-rule="evenodd" clip-rule="evenodd" d="M191.684 89.4993C183.854 86.5345 179.482 87.1855 177.238 90.6693C174.995 94.153 172.109 101.758 170.698 109.799C168.362 123.101 168.032 138.967 167.508 145.974C171.239 147.271 174.142 147.905 178.026 148.024C181.897 128.674 187.193 108.805 191.684 89.4993Z" fill="url(#paint12_linear_20_11733)"/>
<path fill-rule="evenodd" clip-rule="evenodd" d="M180.66 89.4818C179.46 89.8689 178.98 91.2149 178.672 92.4641C178.567 92.8819 178.413 93.3614 178.285 93.7705C177.973 94.7778 175.404 97.0563 174.392 98.4243C170.741 108.708 169.765 121.711 171.208 132.562C173.095 120.69 173.455 110.837 180.357 101.833C180.265 99.8186 179.9 96.5504 180.062 94.659C180.137 93.8321 180.454 93.7177 181.984 92.728C182.965 92.0946 183.792 91.2808 182.693 90.1856C182.297 89.7941 181.518 89.1959 180.656 89.473L180.66 89.4818Z" fill="url(#paint13_linear_20_11733)"/>
<path fill-rule="evenodd" clip-rule="evenodd" d="M166.026 181.361C168.177 182.536 168.898 178.462 169.158 177.081C170.28 171.121 170.737 128.252 170.843 125.977C171.005 122.568 171.08 119.362 171.533 116.164C172.695 108.022 174.81 100.153 177.225 90.5066C174.845 91.7734 172.008 93.9244 170.658 97.0782C168.995 100.967 168.406 105.911 168.133 110.411C167.83 115.385 167.772 120.976 167.434 125.951C166.901 133.789 166.488 173.523 166.026 181.37V181.361Z" fill="url(#paint14_linear_20_11733)"/>
<path fill-rule="evenodd" clip-rule="evenodd" d="M202.236 185.1C201.589 172.555 198.497 130.908 199.465 118.816C200.221 109.364 201.985 99.4313 198.18 95.7496C193.315 91.0431 191.508 88.4566 189.955 88.9581C188.503 89.4243 187.351 92.8817 183.722 98.1733C178.804 105.339 172.994 113.019 172.312 118.28C171.586 123.879 172.356 131.181 172.914 140.405C173.297 146.704 176.873 182.197 180.687 183.494C184.94 184.941 197.384 185.069 202.236 185.104V185.1Z" fill="url(#paint15_linear_20_11733)"/>
<path style="mix-blend-mode:multiply" opacity="0.5" fill-rule="evenodd" clip-rule="evenodd" d="M202.236 185.1C201.589 172.555 198.497 130.908 199.465 118.816C200.221 109.363 201.985 99.4312 198.18 95.7496C197.697 95.2833 197.243 94.8346 196.817 94.408L191.389 107.714C190.993 126.144 191.415 172.81 179.174 181.304C179.464 181.968 180.014 183.274 180.687 183.485C181.034 183.595 181.439 183.723 181.901 183.828C186.77 184.924 197.806 185.065 202.236 185.1Z" fill="url(#paint16_linear_20_11733)"/>
<path fill-rule="evenodd" clip-rule="evenodd" d="M201.501 141.434L180.797 139.107C179.627 138.976 178.58 139.846 178.452 141.016L176.93 154.582C176.798 155.752 177.669 156.799 178.839 156.926L199.544 159.253C200.714 159.385 201.761 158.514 201.888 157.344L203.41 143.779C203.542 142.609 202.671 141.562 201.501 141.434Z" fill="#000002"/>
<path fill-rule="evenodd" clip-rule="evenodd" d="M193.469 148.235C195.321 149.057 196.716 149.946 197.191 150.918C198.356 153.298 196.425 156.381 192.656 156.707C189.471 156.979 185.037 156.368 182.93 156.042C178.29 155.325 178.065 150.711 183.133 147.878C178.325 144.28 183.014 141.324 187.514 140.717C191.314 140.203 198.422 141.892 197.675 145.151C197.463 146.079 194.961 147.641 193.469 148.23V148.235Z" fill="#171E29"/>
<path fill-rule="evenodd" clip-rule="evenodd" d="M192.387 148.296C194.349 149.488 195.801 150.601 196.267 151.701C196.773 152.906 196.175 154.081 195.554 154.921C194.134 156.847 186.159 155.708 183.335 155.268C179.178 154.626 180.093 149.502 184.677 147.716C180.366 144.491 183.414 142.077 187.443 141.531C190.72 141.087 196.808 142.486 196.606 145.235C196.54 146.159 194.032 147.153 192.392 148.296H192.387Z" fill="#2B374A"/>
<path opacity="0.5" fill-rule="evenodd" clip-rule="evenodd" d="M177.326 156.055C177.674 156.526 178.21 156.86 178.835 156.931L199.54 159.258C200.71 159.39 201.757 158.519 201.884 157.349L203.406 143.783C203.481 143.101 203.221 142.464 202.755 142.024C194.798 143.26 182.741 149.251 177.326 156.055Z" fill="#566E93"/>
<path fill-rule="evenodd" clip-rule="evenodd" d="M190.267 147.368C187.914 149.585 186.81 150.465 185.948 152.022C185.187 153.394 184.681 155.655 183.678 157.511C186.203 157.63 186.203 157.041 187.5 154.063C187.478 155.347 187.36 156.038 187.162 156.561C186.823 157.45 186.533 157.784 186.638 158.246C186.849 159.174 191.723 160.349 194.112 159.407C194.512 159.249 194.996 157.652 195.348 156.275C195.572 155.396 195.686 154.798 195.73 154.23C195.915 151.978 195.387 150.482 196.038 148.257L190.267 147.368Z" fill="url(#paint17_linear_20_11733)"/>
<path fill-rule="evenodd" clip-rule="evenodd" d="M195.937 150.716C192.431 150.553 190.531 149.229 189.621 147.676C194.182 130.825 194.397 120.519 190.593 107.683C187.641 97.7337 187.017 98.0372 189.722 88.2634C190.465 87.9995 191.248 87.3836 191.851 87.7091C197.384 90.7134 203.819 92.5521 205.174 99.3348C206.208 104.503 205.97 111.348 205.605 116.331C204.541 130.9 201.946 139.2 195.937 150.711V150.716Z" fill="url(#paint18_linear_20_11733)"/>
<path fill-rule="evenodd" clip-rule="evenodd" d="M189.572 84.5771C191.349 85.4261 193.381 87.819 193.131 88.5096C192.554 90.1151 192.088 90.7309 191.09 92.4684L189.449 91.1356C189.651 92.4904 189.748 93.2381 190.201 94.5489C184.72 102.629 175.708 108.946 172.307 118.209C174.256 100.676 187.443 93.8275 189.568 84.5771H189.572Z" fill="#D3E4F6"/>
<path fill-rule="evenodd" clip-rule="evenodd" d="M179.244 87.4978C178.096 88.3028 175.197 90.5197 174.608 91.7161C174.12 92.7102 174.014 93.6779 173.715 94.9711L175.184 95.1075L172.897 97.7379C171.335 106.922 170.891 115.882 170.882 125.498C170.961 110.516 178.804 89.2573 179.249 87.4934L179.244 87.4978Z" fill="#D3E4F6"/>
<path fill-rule="evenodd" clip-rule="evenodd" d="M187.826 79.9893C188.231 81.9159 188.574 83.4026 189.22 85.2633C188.838 88.3423 186.379 89.9259 183.59 89.983C182.662 90.0006 181.571 89.6707 181.219 89.4772C180.067 88.8438 180.278 86.9128 180.581 85.6284C180.546 84.6519 180.463 83.8381 180.339 82.8704L186.018 80.2048L187.826 79.9849V79.9893Z" fill="url(#paint19_linear_20_11733)"/>
<path fill-rule="evenodd" clip-rule="evenodd" d="M187.826 79.9895C187.945 80.5525 188.239 81.8809 188.354 82.3912C186.251 85.6286 182.781 86.5039 180.581 86.3324C180.546 85.3559 180.463 83.8427 180.339 82.875L186.018 80.2094L187.826 79.9895Z" fill="url(#paint20_linear_20_11733)"/>
<path fill-rule="evenodd" clip-rule="evenodd" d="M188.604 83.2224C187.492 85.7209 183.286 88.8835 181.136 89.4553C182.438 89.8644 183.313 92.4068 183.757 94.6985C185.732 92.4816 187.861 89.9788 189.37 87.3923C190.474 85.5009 189.603 84.476 188.604 83.2224Z" fill="#31ACCB"/>
<path fill-rule="evenodd" clip-rule="evenodd" d="M180.581 85.5669C180.357 87.0888 180.81 88.6592 181.254 89.4773C180.111 89.4377 179.209 90.5242 178.43 92.5916C177.854 91.3731 177.881 90.2999 178.039 89.5653C178.29 88.3908 179.288 87.212 180.581 85.5669Z" fill="#31ACCB"/>
<path fill-rule="evenodd" clip-rule="evenodd" d="M188.42 78.0803C189.995 78.0319 190.267 77.4381 190.395 76.3516C190.527 75.2343 190.562 75.5247 191.024 74.5877C191.252 74.1303 191.371 73.7124 191.433 73.2945C191.64 71.9089 191.187 71.192 190.989 70.2023C190.742 68.975 191.169 68.3944 191.213 67.5543C191.424 63.4943 187.395 60.8815 184.188 63.4327C182.376 61.3829 180.304 61.792 178.664 63.2876C176.178 62.4474 174.111 63.0588 172.998 65.091C170.843 69.0322 174.269 71.7286 176.451 72.1729L183.748 75.2651L188.415 78.0759L188.42 78.0803Z" fill="url(#paint21_linear_20_11733)"/>
<path fill-rule="evenodd" clip-rule="evenodd" d="M188.42 78.0804C189.994 78.032 190.267 77.4382 190.395 76.3517C190.527 75.2345 190.562 75.5248 191.024 74.5878C191.252 74.1304 191.371 73.7125 191.433 73.2946C191.64 71.9091 191.187 71.1921 190.989 70.2024L190.98 70.1628C190.399 71.9794 188.477 72.7316 187.786 70.5103C186.625 69.9516 185.772 69.1203 185.385 68.0162C184.892 66.6175 184.113 65.9577 182.605 66.767C179.117 68.6408 176.499 71.2625 172.545 68.8828C173.196 70.7082 175.07 71.8915 176.447 72.173L183.744 75.2652L188.411 78.076L188.42 78.0804Z" fill="#48202D"/>
<path fill-rule="evenodd" clip-rule="evenodd" d="M175.611 71.9001C176.196 75.8677 176.46 80.0025 178.795 83.3806C179.644 84.6079 180.704 85.2545 182.71 84.3396C184.1 83.7061 185.473 82.7032 186.704 81.8543C188.569 80.5699 188.09 79.8133 188.279 79.0216C188.354 78.7049 188.503 78.3398 188.736 77.8999C189.335 76.7738 190.562 75.9029 190.316 74.5481C190.091 73.3033 189.014 72.8502 188.723 73.8003C188.319 75.1287 187.245 77.46 187.017 70.9764C185.561 70.3078 185.239 69.9867 184.685 69.041C184.144 68.1129 183.625 67.4091 182.578 68.3064C180.427 70.1451 178.597 71.8781 175.611 71.9045V71.9001Z" fill="url(#paint22_linear_20_11733)"/>
<path fill-rule="evenodd" clip-rule="evenodd" d="M175.611 71.9001C175.668 72.2872 175.721 72.6743 175.774 73.0658C179.71 72.881 181.241 70.7917 183.317 68.7199C184.514 70.0131 184.835 70.4002 186.335 71.3283C186.401 71.7682 186.48 74.271 187.043 75.3795C187.505 76.2856 187.989 76.0349 188.411 75.3267C188.697 74.8516 189.128 72.9162 190.069 73.8751C189.665 73.1713 188.943 73.0438 188.714 73.7959C188.31 75.1243 187.236 77.4556 187.008 70.972C185.552 70.3034 185.231 69.9823 184.677 69.0366C184.135 68.1085 183.616 67.4047 182.57 68.302C180.419 70.1407 178.589 71.8737 175.602 71.9001H175.611Z" fill="#DA9569"/>
<g style="mix-blend-mode:multiply" opacity="0.65">
<path fill-rule="evenodd" clip-rule="evenodd" d="M107.392 237.523C168.912 237.523 218.784 235.06 218.784 232.025C218.784 228.99 168.912 226.522 107.392 226.522C45.8721 226.522 -4 228.985 -4 232.025C-4 235.064 45.8721 237.523 107.392 237.523Z" fill="#BCE3F8"/>
</g>
<g style="mix-blend-mode:multiply" opacity="0.65">
<path fill-rule="evenodd" clip-rule="evenodd" d="M107.392 234.682C165.221 234.682 212.098 233.489 212.098 232.02C212.098 230.551 165.221 229.359 107.392 229.359C49.5626 229.359 2.68597 230.551 2.68597 232.02C2.68597 233.489 49.5626 234.682 107.392 234.682Z" fill="#BCE3F8"/>
</g>
<path fill-rule="evenodd" clip-rule="evenodd" d="M162.432 129.839C162.353 131.062 154.968 132.192 155.17 129.439C155.359 126.883 158.636 123.738 161.034 117.554C164.355 108.985 150.587 100.113 144.979 96.5017C141.574 94.6279 140.338 90.348 142.212 86.9434C144.49 82.8086 147.393 82.9934 150.446 84.137C158.83 87.2777 167.047 95.5648 170.284 103.421C173.935 112.289 171.595 121.064 162.432 129.839Z" fill="url(#paint23_linear_20_11733)"/>
<path style="mix-blend-mode:multiply" opacity="0.35" fill-rule="evenodd" clip-rule="evenodd" d="M159.802 131.018C157.673 131.348 155.047 131.097 155.17 129.439C155.359 126.884 158.636 123.739 161.034 117.554C163.246 111.84 157.862 105.99 152.364 101.653C152.509 99.9285 152.681 98.2878 152.878 96.7615C168.151 109.276 168.371 115.456 157.242 128.458L159.802 131.018Z" fill="url(#paint24_linear_20_11733)"/>
<path fill-rule="evenodd" clip-rule="evenodd" d="M120.764 230.824C123.223 232.5 124.076 233.221 126.847 232.896C129.108 232.627 129.772 231.88 130.876 230.551C132.104 229.078 132.425 228.224 132.236 227.103C131.87 224.96 130.56 223.166 130.01 220.496L125.536 221.45L123.429 220.777C122.756 222.159 121.274 224.741 120.298 226.962C119.818 228.057 120.306 229.821 120.759 230.828L120.764 230.824Z" fill="url(#paint25_linear_20_11733)"/>
<path fill-rule="evenodd" clip-rule="evenodd" d="M120.649 230.116C123.082 231.638 123.926 232.298 126.698 231.963C128.959 231.691 129.627 230.987 130.749 229.742C131.994 228.365 132.324 227.569 132.148 226.531C131.809 224.551 130.52 222.902 130.005 220.434L125.528 221.371L123.434 220.773C122.748 222.062 121.239 224.472 120.236 226.544C119.743 227.565 120.214 229.192 120.649 230.12V230.116Z" fill="url(#paint26_linear_20_11733)"/>
<g style="mix-blend-mode:multiply" opacity="0.5">
<path fill-rule="evenodd" clip-rule="evenodd" d="M130.903 223.126C130.551 222.313 130.212 221.442 130.005 220.434L125.528 221.371L123.434 220.773C123.165 221.279 122.765 221.961 122.321 222.726C123.711 225.202 129.948 224.499 130.903 223.126Z" fill="#BDD1E7"/>
</g>
<path fill-rule="evenodd" clip-rule="evenodd" d="M139.502 221.556C139.128 223.584 137.993 225.137 137.813 226.628C137.505 229.197 138.86 231.779 141.649 231.805L159.868 231.981C158.905 225.189 149.162 228.955 145.893 221.424L141.653 221.684L139.502 221.552V221.556Z" fill="url(#paint27_linear_20_11733)"/>
<path fill-rule="evenodd" clip-rule="evenodd" d="M139.502 221.547C139.128 223.408 137.993 224.829 137.813 226.197C137.505 228.55 138.86 230.917 141.649 230.943L159.868 231.106C158.905 224.882 149.162 228.33 145.893 221.429L141.653 221.666L139.502 221.547Z" fill="url(#paint28_linear_20_11733)"/>
<g style="mix-blend-mode:multiply" opacity="0.5">
<path fill-rule="evenodd" clip-rule="evenodd" d="M139.502 221.547C139.379 222.154 139.177 222.713 138.952 223.241C140.399 225.101 144.886 225.225 147.767 223.918C147.028 223.28 146.386 222.471 145.893 221.428L141.653 221.666L139.502 221.547Z" fill="#BDD1E7"/>
</g>
<path fill-rule="evenodd" clip-rule="evenodd" d="M155.685 134.643C157.805 148.059 157.638 160.951 156.085 173.69C155.205 180.925 149.069 216.968 146.87 222.198C145.563 223.5 140.391 223.333 139.075 221.978C138.583 194.245 142.691 167.611 136.067 138.637C134.426 133.371 137.782 129.866 143.043 128.225C148.308 126.584 154.044 129.382 155.685 134.643Z" fill="url(#paint29_linear_20_11733)"/>
<path style="mix-blend-mode:multiply" opacity="0.5" fill-rule="evenodd" clip-rule="evenodd" d="M144.53 136.314C144.693 137.348 149.518 198.265 139.075 221.974C138.583 194.24 142.691 167.606 136.067 138.632C136.344 135.98 142.502 130.869 144.53 136.314Z" fill="url(#paint30_linear_20_11733)"/>
<path fill-rule="evenodd" clip-rule="evenodd" d="M145.792 133.855C140.923 171.451 134.378 197.192 130.876 220.641C129.733 223.03 123.306 222.467 122.396 220.949C123.465 175.674 122.07 165.394 126.086 136.565C127.731 133.297 128.457 132.43 133.96 132.817C139.458 133.204 146.184 128.357 145.797 133.855H145.792Z" fill="url(#paint31_linear_20_11733)"/>
<path style="mix-blend-mode:multiply" opacity="0.5" fill-rule="evenodd" clip-rule="evenodd" d="M122.396 220.949C123.465 175.674 122.07 165.394 126.086 136.565C127.731 133.297 124.969 131.036 130.472 131.423C128.545 154.679 125.048 209.702 122.396 220.949Z" fill="url(#paint32_linear_20_11733)"/>
<path fill-rule="evenodd" clip-rule="evenodd" d="M126.135 102.436C126.091 107.142 126.126 113.811 126.095 120.369C126.047 131.106 124.463 138.975 123.865 149.127C133.722 151.709 148.247 152.127 157.774 148.424C157.827 140.321 155.975 130.218 156.01 120.576C156.054 108.488 155.993 93.8846 155.43 91.4125C154.436 87.071 152.016 84.4098 148.528 83.3937C146.034 82.668 140.056 82.4172 137.263 82.5272C131.818 82.7471 124.12 84.3131 120.236 88.8261C118.107 91.2981 117.496 93.3127 116.339 96.4314C116.242 101.714 117.513 104.652 121.27 105.919C123.434 104.169 124.573 103.113 126.139 102.436H126.135Z" fill="url(#paint33_linear_20_11733)"/>
<path style="mix-blend-mode:multiply" opacity="0.35" fill-rule="evenodd" clip-rule="evenodd" d="M157.673 148.459L157.774 148.419C157.827 140.317 155.975 130.213 156.01 120.571C156.037 113.34 156.028 105.216 155.892 99.3171C154.963 98.4902 153.961 97.6412 152.883 96.7571C151.145 110.301 151.123 132.593 157.677 148.455L157.673 148.459Z" fill="url(#paint34_linear_20_11733)"/>
<path style="mix-blend-mode:multiply" opacity="0.35" fill-rule="evenodd" clip-rule="evenodd" d="M126.135 102.435C126.091 107.142 126.126 113.81 126.095 120.369C126.047 131.106 124.463 138.975 123.865 149.127L124.054 149.176C130.388 132.364 130.634 112.522 129.5 94.9578C124.793 97.2935 120.737 100.395 117.993 103.707C118.762 104.714 119.836 105.435 121.265 105.919C123.429 104.169 124.569 103.113 126.135 102.435Z" fill="url(#paint35_linear_20_11733)"/>
<path fill-rule="evenodd" clip-rule="evenodd" d="M135.473 76.6418C135.376 78.5157 135.02 81.0713 134.681 82.9144C135.491 85.7559 138.187 87.942 140.822 87.5857C143.091 87.2778 143.641 83.8865 142.863 81.9906C142.753 81.0669 142.709 80.2883 142.682 79.3602L136.947 77.6887L135.469 76.6418H135.473Z" fill="url(#paint36_linear_20_11733)"/>
<path fill-rule="evenodd" clip-rule="evenodd" d="M135.398 76.5803C135.372 77.1258 135.297 78.8324 135.262 79.3295C137.716 82.7912 141.086 84.0229 143.127 82.9056C142.872 81.9599 142.713 80.2884 142.687 79.3603L136.951 77.6888L135.398 76.5847V76.5803Z" fill="url(#paint37_linear_20_11733)"/>
<path fill-rule="evenodd" clip-rule="evenodd" d="M134.897 74.8824C133.401 74.7504 133.177 74.1698 133.115 73.1317C133.049 72.0585 133.005 72.3356 132.614 71.4207C132.425 70.9764 132.332 70.5673 132.293 70.1714C132.174 68.843 132.64 68.1876 132.882 67.2551C133.181 66.0983 132.807 65.5264 132.812 64.7259C132.834 60.8507 136.81 58.5853 139.718 61.1894C141.556 59.3419 143.501 59.8434 144.979 61.3521C147.385 60.6879 149.324 61.3829 150.266 63.3755C152.1 67.2419 148.691 69.6172 146.597 69.9251L139.489 72.4675L134.897 74.8824Z" fill="url(#paint38_linear_20_11733)"/>
<path fill-rule="evenodd" clip-rule="evenodd" d="M134.897 74.8822C133.401 74.7503 133.177 74.1697 133.115 73.1316C133.049 72.0583 133.005 72.3354 132.614 71.4205C132.425 70.9762 132.332 70.5672 132.293 70.1713C132.174 68.8429 132.64 68.1875 132.882 67.255L132.891 67.2198C133.344 68.9792 135.134 69.7974 135.908 67.7256C137.043 67.255 137.901 66.5116 138.328 65.4867C138.869 64.1847 139.652 63.5997 141.037 64.453C144.253 66.428 146.597 69.0584 150.486 67.013C149.769 68.7153 147.921 69.7358 146.593 69.9294L139.485 72.4718L134.892 74.8867L134.897 74.8822Z" fill="#48202D"/>
<path fill-rule="evenodd" clip-rule="evenodd" d="M147.415 69.7008C146.641 73.4396 146.166 77.3588 143.76 80.4467C142.885 81.5684 141.842 82.1226 139.986 81.1417C138.702 80.4643 137.448 79.435 136.322 78.5597C134.615 77.2357 135.112 76.5407 134.98 75.7797C134.928 75.4762 134.804 75.1199 134.606 74.6888C134.101 73.5848 132.979 72.6875 133.287 71.4162C133.568 70.2462 134.62 69.8723 134.84 70.7916C135.152 72.076 136.045 74.3545 136.617 68.2008C138.037 67.6422 138.358 67.3563 138.939 66.4897C139.507 65.6364 140.034 64.9986 140.985 65.9047C142.929 67.7741 144.578 69.516 147.415 69.7052V69.7008Z" fill="url(#paint39_linear_20_11733)"/>
<path fill-rule="evenodd" clip-rule="evenodd" d="M147.415 69.7008C147.341 70.0659 147.266 70.4309 147.195 70.8004C143.461 70.4089 142.124 68.3416 140.259 66.2566C139.049 67.4222 138.724 67.7697 137.246 68.5747C137.162 68.9882 136.947 71.3635 136.348 72.3883C135.86 73.2241 135.416 72.9602 135.051 72.2652C134.804 71.7989 134.501 69.9339 133.551 70.7916C133.973 70.145 134.668 70.0615 134.844 70.7916C135.156 72.076 136.049 74.3545 136.621 68.2008C138.042 67.6422 138.363 67.3563 138.943 66.4897C139.511 65.6364 140.039 64.9986 140.989 65.9047C142.933 67.7741 144.583 69.516 147.42 69.7052L147.415 69.7008Z" fill="#DA9569"/>
<path fill-rule="evenodd" clip-rule="evenodd" d="M131.307 123.756C136.7 124.605 136.674 122.977 139.485 123.373C142.005 123.73 144.253 125.045 146.522 126.21C149.527 127.754 148.387 128.74 146.364 128.159C144.781 127.706 143.061 127.02 141.442 126.615C143.716 127.671 144.825 127.363 143.712 129.241C142.872 130.666 141.679 132.593 140.545 132.593C139.225 132.593 136.779 132.021 135.165 131.454C134.065 131.067 133.775 130.728 132.667 129.452C132.205 128.92 131.769 128.687 130.111 128.388L130.802 125.731L131.312 123.76L131.307 123.756Z" fill="url(#paint40_linear_20_11733)"/>
<path fill-rule="evenodd" clip-rule="evenodd" d="M170.486 123.536L157.264 124.732C155.592 124.882 155.249 124.878 153.697 125.511L143.188 129.822C142.876 129.936 142.669 130.028 142.568 130.103C142.489 130.16 142.493 130.314 142.489 130.442C142.484 130.6 142.484 130.785 142.515 130.794C142.669 130.833 143.074 130.323 143.58 130.301L154.814 129.83C156.274 129.769 156.499 129.817 157.858 129.281L170.346 124.385C170.794 124.209 171.217 124.491 171.362 124.315C171.414 124.249 171.393 123.694 171.371 123.646C171.327 123.536 171.063 123.479 170.482 123.532L170.486 123.536Z" fill="#96CCE7"/>
<path fill-rule="evenodd" clip-rule="evenodd" d="M170.486 124.108L157.264 125.304C155.592 125.454 155.249 125.45 153.697 126.083L143.188 130.394C142.194 130.754 142.234 130.93 143.58 130.878L154.814 130.407C156.274 130.345 156.499 130.394 157.858 129.857L170.346 124.961C171.344 124.57 171.995 123.972 170.482 124.108H170.486Z" fill="url(#paint41_linear_20_11733)"/>
<path fill-rule="evenodd" clip-rule="evenodd" d="M165.252 126.949C165.819 128.502 166.105 128.419 165.278 129.303C164.553 130.077 162.802 131.687 161.504 132.259C160.572 132.668 159.573 132.826 158.399 132.483C156.529 131.938 155.795 131.722 153.873 130.152C153.112 129.531 153.437 129.43 155.245 129.14C156.112 128.999 157.066 128.863 157.867 128.379C159.463 127.416 161.166 127.504 162.692 127.772C163.264 127.873 163.339 127.706 163.756 127.548L165.252 126.949Z" fill="url(#paint42_linear_20_11733)"/>
<path fill-rule="evenodd" clip-rule="evenodd" d="M130.744 98.0282C121.912 104.776 118.085 108.691 118.081 112.812C118.081 116.564 123.416 120.523 132.821 123.162C134.347 123.646 133.34 129.202 131.69 129.25C123.68 128.507 110.704 126.708 106.992 116.529C103.565 107.133 113.335 95.3802 120.619 88.4435C123.94 85.2809 128.695 83.407 132.024 87.8937C134.224 90.854 133.705 95.8289 130.744 98.0282Z" fill="url(#paint43_linear_20_11733)"/>
<path style="mix-blend-mode:multiply" opacity="0.35" fill-rule="evenodd" clip-rule="evenodd" d="M129.719 98.8154C121.617 105.083 118.085 108.853 118.081 112.812C118.081 115.416 120.645 118.112 125.347 120.404C125.937 120.69 127.322 121.31 128.787 121.856C130.445 122.476 132.214 123.03 133.041 123.32C119.022 125.08 101.102 109.038 129.491 94.9578C129.574 96.2334 129.649 97.5178 129.715 98.8154H129.719Z" fill="url(#paint44_linear_20_11733)"/>
<path fill-rule="evenodd" clip-rule="evenodd" d="M112.978 129.809C111.351 128.507 109.904 127.583 108.245 126.171L109.604 120.277C110.915 120.589 112.037 120.33 112.961 120.677C115.648 121.698 117.751 123.642 118.56 124.895C119.761 126.752 118.459 129.36 117.346 131.26C116.088 133.416 114.351 130.908 112.978 129.809Z" fill="url(#paint45_linear_20_11733)"/>
<path fill-rule="evenodd" clip-rule="evenodd" d="M104.7 111.149C105.848 114.875 106.077 117.039 110.779 120.294C110.295 122.951 109.895 124.108 108.544 125.907C105.184 123.58 101.99 122.586 101.599 121.227C101.089 119.454 104.071 117.127 104.7 111.149Z" fill="#B5E0F7"/>
<path fill-rule="evenodd" clip-rule="evenodd" d="M69.2026 231.312C71.402 233.239 72.1453 234.039 74.9825 234.154C77.3006 234.246 78.0879 233.648 79.4163 232.579C80.8899 231.396 81.3561 230.648 81.3473 229.575C81.3297 227.529 80.3004 225.66 80.1861 223.095L75.5323 223.307L73.5265 222.365C72.6248 223.548 70.7158 225.726 69.3698 227.648C68.7056 228.594 68.9167 230.305 69.2026 231.312Z" fill="url(#paint46_linear_20_11733)"/>
<path style="mix-blend-mode:multiply" opacity="0.5" fill-rule="evenodd" clip-rule="evenodd" d="M80.648 225.95C80.4281 225.075 80.2301 224.147 80.1817 223.095L75.5279 223.307L73.5221 222.365C73.1658 222.831 72.6556 223.452 72.0837 224.147C73.9004 226.087 79.4647 227.173 80.648 225.946V225.95Z" fill="url(#paint47_linear_20_11733)"/>
<path fill-rule="evenodd" clip-rule="evenodd" d="M98.0271 222.009C97.6444 223.905 96.4876 225.352 96.3072 226.746C95.9949 229.144 97.3761 231.554 100.213 231.58L118.776 231.743C117.79 225.4 107.871 228.919 104.537 221.886L100.218 222.128L98.0271 222.005V222.009Z" fill="url(#paint48_linear_20_11733)"/>
<path style="mix-blend-mode:multiply" opacity="0.5" fill-rule="evenodd" clip-rule="evenodd" d="M98.0271 222.009C97.904 222.629 97.6972 223.197 97.4685 223.733C99.206 224.938 102.562 225.757 106.446 224.419C105.694 223.768 105.043 222.946 104.537 221.886L100.218 222.128L98.0271 222.005V222.009Z" fill="url(#paint49_linear_20_11733)"/>
<path fill-rule="evenodd" clip-rule="evenodd" d="M109.684 141.232C110.44 145.78 112.208 150.126 112.142 155.783C111.905 177.037 107.572 201.15 105.298 222.387C102.267 223.548 99.8481 223.487 97.3277 222.449C96.9626 210.155 96.3732 197.288 95.731 185.139C94.9216 169.836 92.995 157.863 89.5068 138.777L106.231 130.222L109.679 141.232H109.684Z" fill="url(#paint50_linear_20_11733)"/>
<g style="mix-blend-mode:multiply" opacity="0.3">
<path fill-rule="evenodd" clip-rule="evenodd" d="M96.5976 141.087C97.0814 143.994 98.4714 139.67 99.5051 147.311C102.483 169.322 100.09 200.482 97.3629 222.405C96.9978 210.111 96.3688 197.284 95.731 185.135C95.0228 171.732 93.4569 160.885 90.7341 145.573L96.5932 141.082L96.5976 141.087Z" fill="#0A3C5F"/>
</g>
<path fill-rule="evenodd" clip-rule="evenodd" d="M81.4353 141.698C80.6612 145.138 79.1392 148.243 78.3167 155.277C77.4237 162.922 77.8856 170.593 77.393 178.022C76.4297 192.591 74.4019 207.106 72.6204 222.726C74.2171 224.745 79.0733 224.974 80.8063 224.34C84.8927 212.103 87.7034 200.394 91.13 187.985C95.8234 170.984 97.9127 155.783 101.828 139.631L81.4353 141.698Z" fill="url(#paint51_linear_20_11733)"/>
<path fill-rule="evenodd" clip-rule="evenodd" d="M105.844 91.9316C108.764 95.1998 109.508 97.7598 109.785 101.727C110.247 108.303 109.644 114.448 109.389 120.334C109.305 122.221 109.292 124.086 109.319 125.929C109.367 129.188 109.402 138.342 109.728 141.663C105.874 147.803 88.3105 148.424 81.2594 142.019C83.3004 130.354 75.242 115.53 76.7288 101.441C76.9135 99.6996 78.6774 98.3668 79.7683 96.8185C81.9764 93.6734 87.9146 88.7249 91.284 86.2881C97.6444 87.0535 101.515 87.0842 105.848 91.9316H105.844Z" fill="url(#paint52_linear_20_11733)"/>
<path style="mix-blend-mode:multiply" opacity="0.55" fill-rule="evenodd" clip-rule="evenodd" d="M79.1656 98.3098C78.5146 99.427 77.5953 100.382 77.4677 101.622C77.1598 104.683 76.9135 107.956 77.2654 111.29C77.802 116.419 79.0908 121.693 80.1553 126.549C81.5101 132.743 82.1919 138.329 81.2593 142.011C81.598 142.318 81.9632 142.609 82.3459 142.886C83.23 139.068 83.9117 137.432 84.8443 133.49C90.9496 135.861 101.603 134.533 109.376 131.049C109.336 127.856 109.27 124.614 109.354 121.39C105.061 121.702 91.5083 120.18 87.4131 116.362C85.1566 114.259 87.4791 110.494 88.0201 106.368C88.2929 104.288 86.3178 102.387 85.2534 100.126L83.2959 95.6178C81.9895 92.6135 83.0804 95.0767 79.1656 98.301V98.3098Z" fill="url(#paint53_linear_20_11733)"/>
<path fill-rule="evenodd" clip-rule="evenodd" d="M105.844 91.9316C108.764 95.1998 109.508 97.7598 109.785 101.727C110.247 108.303 109.644 114.448 109.389 120.334C109.305 122.221 109.292 124.086 109.318 125.929C109.345 127.759 109.472 131.339 109.547 134.805C109.675 140.88 110.396 143.295 111.571 149.123C111.98 151.151 112.274 153.297 112.248 155.677C112.112 167.861 110.599 181.018 108.901 194.029C107.775 194.236 106.64 194.381 105.483 194.504C107.568 178.361 111.487 99.0178 100.97 88.8129C100.204 88.0695 99.3467 87.6077 98.4802 87.3438C101.137 88.0124 103.42 89.2176 105.848 91.9316H105.844ZM75.5807 194.451C76.0778 188.984 76.5132 183.569 76.8739 178.128C77.3666 170.699 76.9047 163.027 77.7976 155.382C78.2771 151.27 78.9984 148.498 79.667 146.22C80.5116 143.339 81.4045 142.213 81.5541 139.327C82.1347 128.124 75.352 114.466 76.7244 101.441C76.9091 99.6996 78.2067 97.3287 79.2976 95.7804C81.5057 92.6354 87.9102 88.7293 91.2795 86.2881C93.6636 86.574 95.7002 86.7587 97.5432 87.1326C94.6753 86.6928 91.9482 88.1003 92.0669 88.4082C94.8777 95.4769 95.5067 98.4944 96.0873 108.972C97.838 140.475 92.2737 158.813 86.2519 194.61C81.5937 194.874 79.2316 194.728 75.5807 194.451Z" fill="url(#paint54_linear_20_11733)"/>
<path style="mix-blend-mode:multiply" opacity="0.55" fill-rule="evenodd" clip-rule="evenodd" d="M77.107 111.189C77.1158 114.827 78.2111 118.706 79.104 122.208C80.472 128.242 81.8312 134.053 81.5585 139.323C81.4089 142.208 80.5204 143.334 79.6714 146.215C79.0028 148.494 78.2815 151.265 77.802 155.378C76.9091 163.023 77.3709 170.69 76.8783 178.123C76.5176 183.56 76.0822 188.979 75.5851 194.447L76.0866 194.486C76.8431 191.975 77.5953 189.349 78.2859 186.701C81.5893 174.085 80.4236 168.103 81.8356 156.829C82.8869 148.419 85.4865 144.5 85.6712 135.513C88.4512 136.349 92.388 135.808 95.8806 134.533C96.2369 129.883 96.426 125.115 96.4172 120.048C92.6607 120.36 87.3999 121.02 85.6449 119.384C83.3883 117.281 87.4747 110.503 88.0202 106.377C89.3881 95.9871 77.0938 105.317 77.1114 111.189H77.107ZM107.858 131.691C108.373 131.489 108.879 131.273 109.376 131.053C109.336 127.86 109.27 124.618 109.354 121.394C108.857 121.429 108.232 121.442 107.515 121.429C107.678 124.75 107.792 128.19 107.858 131.691Z" fill="url(#paint55_linear_20_11733)"/>
<path fill-rule="evenodd" clip-rule="evenodd" d="M92.6607 81.2781C92.322 83.2531 92.0317 84.7794 91.4467 86.6972C93.8967 94.0254 101.858 92.4947 100.253 86.7324C100.253 85.7383 100.301 84.907 100.389 83.9173L94.5082 81.4276L92.6607 81.2737V81.2781Z" fill="url(#paint56_linear_20_11733)"/>
<path fill-rule="evenodd" clip-rule="evenodd" d="M92.6607 81.2781C92.5639 81.8543 92.4672 82.3953 92.3704 82.9144C94.6357 86.1254 98.0227 86.992 100.253 86.7324C100.253 85.7383 100.301 84.907 100.389 83.9173L94.5082 81.4276L92.6607 81.2737V81.2781Z" fill="url(#paint57_linear_20_11733)"/>
<path fill-rule="evenodd" clip-rule="evenodd" d="M92.1241 81.7047C86.6126 77.3325 86.485 72.7798 85.6273 70.3562C84.1273 66.1071 87.7518 61.9547 92.0889 62.4474C94.7017 62.7465 100.565 63.4854 102.888 62.6101C106.16 66.2566 103.415 70.1714 101.418 71.2359L95.1812 76.3603L92.1241 81.7047Z" fill="url(#paint58_linear_20_11733)"/>
<path fill-rule="evenodd" clip-rule="evenodd" d="M92.0977 81.4803C89.3441 79.6372 87.5978 78.3352 86.5993 73.743C87.0832 74.526 89.2165 75.1066 89.5201 72.7533C90.4922 71.8736 91.4335 70.9411 91.4951 69.749C91.5742 68.2447 92.1461 67.3737 93.8484 67.73C97.794 68.557 101.106 70.3604 104.282 66.8987C104.172 68.8693 102.681 70.5628 101.418 71.2358L95.1811 76.3602L92.0977 81.4803Z" fill="#48202D"/>
<path fill-rule="evenodd" clip-rule="evenodd" d="M102.166 70.7213C102.738 74.7637 103.671 78.8808 102.364 82.8528C101.889 84.2956 101.036 85.2325 98.8144 84.9158C97.2749 84.6958 95.643 84.1152 94.1958 83.6402C92.0009 82.9232 92.2516 82.0435 91.8382 81.3265C91.6754 81.0406 91.4247 80.7239 91.0684 80.3632C90.1579 79.435 88.7107 78.938 88.5612 77.5436C88.4248 76.2636 89.3441 75.507 89.8983 76.3516C90.6769 77.5348 92.3968 79.501 90.7517 73.101C91.9789 72.0277 92.2033 71.623 92.4716 70.5409C92.7355 69.4809 93.039 68.6451 94.319 69.2169C96.9494 70.3958 99.2367 71.557 102.162 70.7213H102.166Z" fill="url(#paint59_linear_20_11733)"/>
<path fill-rule="evenodd" clip-rule="evenodd" d="M102.166 70.7213C102.223 71.1172 102.281 71.513 102.342 71.9089C98.445 72.8634 96.3468 71.2667 93.7208 69.8372C92.9247 71.4471 92.7223 71.9133 91.5259 73.2549C91.5919 73.7036 92.2341 76.1668 92.0009 77.4161C91.8118 78.4322 91.2664 78.3266 90.6506 77.7592C90.2371 77.3809 89.2562 75.6126 88.6096 76.8178C88.7987 76.0129 89.4673 75.6786 89.9072 76.3472C90.6857 77.5304 92.4056 79.4966 90.7605 73.0966C91.9878 72.0233 92.2121 71.6186 92.4804 70.5365C92.7443 69.4765 93.0478 68.6407 94.3279 69.2125C96.9583 70.3914 99.2455 71.5526 102.171 70.7169L102.166 70.7213Z" fill="#DA9569"/>
<path fill-rule="evenodd" clip-rule="evenodd" d="M98.7309 93.7441C99.2279 104.068 100.847 114.99 100.059 125.313L104.555 133.359L106.349 124.86C107.189 112.597 101.788 97.549 100.38 92.926C100.578 91.1445 101.594 88.2458 98.7484 89.1211C98.7352 89.1211 98.6209 89.1827 98.6121 89.1827C97.7544 89.4598 97.0813 90.0668 96.7163 90.9861C96.2588 92.1298 97.9259 93.0183 98.7309 93.7441Z" fill="url(#paint60_linear_20_11733)"/>
<path fill-rule="evenodd" clip-rule="evenodd" d="M100.314 85.8528C100.191 86.8161 99.4478 88.2237 98.6341 89.1782C100.235 88.8923 101.163 90.8145 101.445 92.5784C101.524 90.8233 102.061 88.6547 101.784 87.775C101.691 87.4847 100.935 86.3498 100.314 85.8528Z" fill="#31ACCB"/>
<path fill-rule="evenodd" clip-rule="evenodd" d="M92.0537 84.1108C89.7972 87.2339 90.567 89.1077 96.7471 93.1149C96.7163 91.3159 97.3233 90.335 98.6429 89.1693C96.0301 88.0696 92.9027 86.1034 92.0537 84.1108Z" fill="#31ACCB"/>
<path fill-rule="evenodd" clip-rule="evenodd" d="M117.896 123.422C114.848 122.806 112.666 122.036 110.031 122.186C108.962 122.247 107.726 122.569 106.464 122.907C104.893 123.33 103.877 123.827 102.707 123.888L102.241 129.536C104.849 129.382 105.047 128.828 107.643 129.919C110.933 131.3 111.61 131.287 114.592 130.161C116.026 129.62 116.919 126.998 117.575 125.643C118.806 125.107 119.211 124.152 117.896 123.426V123.422Z" fill="url(#paint61_linear_20_11733)"/>
<path fill-rule="evenodd" clip-rule="evenodd" d="M89.9688 103.861C82.4866 110.727 74.16 122.735 87.6067 123.91C92.9643 124.376 98.3306 124.143 102.835 123.474C105.074 123.14 104.766 129.514 104.053 129.782C94.9305 133.209 83.2872 134.392 76.4957 131.608C59.3452 124.583 72.8667 102.897 81.0395 93.823C83.8106 91.3554 88.0598 91.6061 90.523 94.3773C92.9907 97.1484 92.7399 101.398 89.9688 103.861Z" fill="url(#paint62_linear_20_11733)"/>
<g style="mix-blend-mode:multiply" opacity="0.65">
<path fill-rule="evenodd" clip-rule="evenodd" d="M250.815 236.305C266.932 236.305 280 234.062 280 231.295C280 228.528 266.936 226.285 250.815 226.285C234.694 226.285 221.63 228.528 221.63 231.295C221.63 234.062 234.694 236.305 250.815 236.305Z" fill="#BCE3F8"/>
</g>
<g style="mix-blend-mode:multiply" opacity="0.65">
<path fill-rule="evenodd" clip-rule="evenodd" d="M250.815 233.718C265.964 233.718 278.245 232.632 278.245 231.295C278.245 229.958 265.964 228.871 250.815 228.871C235.666 228.871 223.385 229.958 223.385 231.295C223.385 232.632 235.666 233.718 250.815 233.718Z" fill="#BCE3F8"/>
</g>
<path fill-rule="evenodd" clip-rule="evenodd" d="M235.354 141.808C233.11 144.443 231.302 147.007 229.899 149.501C230.361 150.328 230.77 151.173 231.236 152.009C230.343 151.617 229.688 151.327 229.037 151.116C225.087 158.989 225.14 166.133 227.863 172.484C230 173.404 230.568 173.531 233.242 173.822C231.949 174.367 230.656 174.908 229.363 175.458C232.767 181.255 238.833 184.238 236.981 193.462C236.911 193.818 236.84 194.183 236.779 194.544C238.362 195.569 239.946 196.589 241.534 197.614C239.053 197.451 238.098 197.434 236.515 197.737C236.651 202.03 239.286 206.548 250.824 210.713C251.95 210.625 254.73 209.266 255.31 208.47C254.8 204.472 256.001 197.469 257.03 191.966C257.866 187.488 257.584 184.352 256.59 181.937C255.156 182.65 253.674 183.16 252.2 183.807C253.388 181.686 253.969 180.657 254.435 178.585C250.815 174.609 244.784 172.568 240.627 165.957C240.377 165.557 240.122 165.139 239.862 164.699C239.053 165.046 238.226 165.354 237.408 165.715C238.081 164.518 238.499 163.771 238.815 162.829C236.11 157.705 233.62 150.465 235.358 141.813L235.354 141.808Z" fill="url(#paint63_linear_20_11733)"/>
<path style="mix-blend-mode:multiply" opacity="0.5" fill-rule="evenodd" clip-rule="evenodd" d="M236.524 185.804C237.324 187.862 237.623 190.295 236.985 193.457C236.915 193.814 236.845 194.179 236.783 194.54C238.367 195.564 239.95 196.585 241.538 197.61C239.057 197.447 238.103 197.429 236.519 197.733C236.656 202.026 239.29 206.543 250.828 210.709C251.954 210.621 254.734 209.266 255.315 208.466C254.804 204.467 256.005 197.465 257.035 191.962C257.87 187.484 257.589 184.348 256.595 181.933C255.161 182.646 253.678 183.156 252.205 183.802C253.392 181.682 253.973 180.653 254.439 178.581C252.156 176.074 248.91 174.332 245.783 171.732C244.168 177.103 239.497 180.42 236.528 185.804H236.524Z" fill="url(#paint64_linear_20_11733)"/>
<path style="mix-blend-mode:multiply" opacity="0.5" fill-rule="evenodd" clip-rule="evenodd" d="M233.986 171.099C232.143 170.342 229.499 168.381 227.915 166.489C229.798 167.686 231.368 168.917 233.141 169.559C232.82 168.908 232.525 168.235 232.27 167.527C229.948 161.096 231.408 155.396 233.225 149.238C232.024 154.129 230.981 158.787 231.945 163.626C232.402 162.117 233.339 160.978 234.566 159.174C233.62 161.369 232.591 163.282 232.442 165.579C232.613 166.124 232.811 166.674 233.04 167.228C234.21 170.043 235.969 172.282 237.887 174.332C237.689 172.366 238.27 170.712 239.114 168.438C238.763 170.567 238.397 173.153 238.881 175.374C241.542 178.093 244.362 180.587 246.236 183.855C247.212 179.668 246.97 180.428 247.921 176.285C248.242 180.816 248.096 182.544 247.164 185.729C247.731 187.088 248.136 188.579 248.316 190.264C248.769 194.482 248.739 197.108 249.003 199.387C251.369 194.597 250.283 196.849 253.454 190.048C253.159 194.016 253.287 194.451 249.548 202.171C250.146 204.208 251.277 206.394 253.555 209.719C252.816 210.106 251.998 210.449 251.374 210.617C247.221 204.419 247.212 202.013 247.142 197.359C245.339 194.201 243.042 190.629 240.584 188.232C242.827 189.085 244.6 190.356 247.05 194.122C246.997 193.009 246.909 191.773 246.759 190.369C246.359 186.613 244.582 183.763 242.356 181.11C238.028 179.324 237.131 179.346 235.178 178.845C237.663 178.585 239.189 178.761 240.685 179.219C238.375 176.703 235.859 174.213 233.986 171.108V171.099Z" fill="url(#paint65_linear_20_11733)"/>
<path fill-rule="evenodd" clip-rule="evenodd" d="M268.625 112.689C264.363 114.963 260.703 117.374 257.602 119.894C257.782 121.205 257.879 122.511 258.059 123.84C257.101 122.872 256.397 122.164 255.662 121.552C246.504 129.765 242.919 139.072 243.21 148.723C245.523 151.01 246.192 151.463 249.517 153.209C247.555 153.253 245.598 153.302 243.636 153.35C245.097 162.627 251.453 169.599 244.336 180.64C244.059 181.066 243.786 181.502 243.517 181.942C245.053 184.084 246.588 186.221 248.123 188.359C244.982 186.877 243.751 186.367 241.534 185.953C239.519 191.601 240.628 198.819 253.494 210.133C255.002 210.59 259.304 210.251 260.47 209.508C261.851 204.049 266.993 195.569 271.141 188.944C274.519 183.556 275.755 179.333 275.698 175.691C273.468 175.88 271.282 175.788 269.039 175.876C271.665 173.729 272.945 172.691 274.607 170.232C271.937 163.212 265.141 157.476 263.122 146.765C262.999 146.119 262.88 145.446 262.77 144.738C261.539 144.777 260.312 144.751 259.062 144.799C260.545 143.585 261.473 142.829 262.37 141.769C261.477 133.728 261.943 123.043 268.625 112.689Z" fill="url(#paint66_linear_20_11733)"/>
<path style="mix-blend-mode:multiply" opacity="0.5" fill-rule="evenodd" clip-rule="evenodd" d="M251.866 150.042C249.86 148.116 247.423 144.214 246.333 140.95C248.167 143.471 249.574 145.873 251.554 147.614C251.466 146.607 251.431 145.578 251.461 144.527C251.73 134.981 256.546 128.322 262.053 121.249C257.989 126.993 254.255 132.509 253.032 139.292C254.4 137.563 256.199 136.561 258.715 134.845C256.366 137.216 254.048 139.173 252.68 142.081C252.623 142.877 252.601 143.695 252.614 144.531C252.693 148.789 253.837 152.594 255.28 156.236C256.027 153.579 257.628 151.727 259.889 149.202C258.345 151.789 256.546 154.965 256.04 158.092C258.112 162.983 260.496 167.668 261.262 172.872C264.671 167.927 263.971 168.794 267.319 163.898C265.418 169.951 264.345 172.124 261.504 175.783C261.548 177.838 261.306 179.984 260.681 182.267C259.111 187.981 257.73 191.377 256.911 194.473C262.436 189.463 259.872 191.83 267.473 184.612C265.062 189.613 265.001 190.246 256.199 198.371C255.935 201.327 256.287 204.744 257.545 210.225C256.388 210.353 255.148 210.379 254.25 210.273C252.024 200.099 253.243 196.967 255.526 190.884C254.796 185.856 253.643 180.041 251.673 175.674C254.153 177.93 255.803 180.486 257.065 186.635C257.567 185.166 258.086 183.512 258.609 181.612C260.012 176.527 259.155 171.913 257.62 167.325C252.909 162.794 251.73 162.359 249.447 160.709C252.812 161.646 254.699 162.649 256.414 164.008C254.699 159.557 252.702 155.035 251.857 150.042H251.866Z" fill="url(#paint67_linear_20_11733)"/>
<path fill-rule="evenodd" clip-rule="evenodd" d="M235.754 206.116H267.244L261.147 231.22H241.85L235.754 206.116Z" fill="url(#paint68_linear_20_11733)"/>
<g style="mix-blend-mode:multiply" opacity="0.3">
<path fill-rule="evenodd" clip-rule="evenodd" d="M235.754 206.116H267.244L266.281 209.891L239.963 223.443L235.754 206.116Z" fill="#08365B"/>
</g>
<path d="M267.666 203.623H235.336C235.115 203.623 234.936 203.802 234.936 204.023V208.633C234.936 208.854 235.115 209.033 235.336 209.033H267.666C267.887 209.033 268.066 208.854 268.066 208.633V204.023C268.066 203.802 267.887 203.623 267.666 203.623Z" fill="url(#paint69_linear_20_11733)"/>
<path fill-rule="evenodd" clip-rule="evenodd" d="M16.247 230.784C18.1165 232.557 18.7543 233.296 21.134 233.353C23.0782 233.402 23.7292 232.825 24.8244 231.8C26.0429 230.666 26.4211 229.957 26.3947 228.95C26.3508 227.028 25.4623 225.295 25.3259 222.889L21.4287 223.166L19.7308 222.312C18.9962 223.439 17.4259 225.515 16.3306 227.34C15.7896 228.238 15.9875 229.843 16.247 230.78V230.784Z" fill="url(#paint70_linear_20_11733)"/>
<path style="mix-blend-mode:multiply" opacity="0.5" fill-rule="evenodd" clip-rule="evenodd" d="M25.7614 225.559C25.5635 224.741 25.3831 223.87 25.3303 222.889L21.4331 223.166L19.7353 222.313C19.4449 222.757 18.5696 224.002 18.0989 224.666C19.6517 226.456 24.7849 226.725 25.7614 225.555V225.559Z" fill="url(#paint71_linear_20_11733)"/>
<path fill-rule="evenodd" clip-rule="evenodd" d="M50.2752 221.75C49.9277 223.483 48.872 224.807 48.7049 226.078C48.419 228.273 49.6814 230.472 52.2766 230.499L69.2422 230.648C68.3449 224.851 59.2749 228.066 56.2266 221.64L52.2766 221.864L50.2752 221.754V221.75Z" fill="url(#paint72_linear_20_11733)"/>
<path style="mix-blend-mode:multiply" opacity="0.5" fill-rule="evenodd" clip-rule="evenodd" d="M50.2752 221.75C50.1608 222.317 49.9717 222.836 49.7649 223.329C51.3528 224.433 54.4187 225.176 57.9729 223.958C57.2867 223.364 56.6885 222.612 56.2266 221.64L52.2766 221.864L50.2752 221.754V221.75Z" fill="url(#paint73_linear_20_11733)"/>
<path fill-rule="evenodd" clip-rule="evenodd" d="M62.5122 140.278C63.2512 144.839 63.4888 149.185 63.4272 154.855C63.194 176.166 59.8687 200.297 57.6561 221.587C54.709 222.753 51.4672 222.691 49.0127 221.649C48.6564 209.323 48.5289 196.616 47.9043 184.436C47.1169 169.093 45.2431 157.089 41.8473 137.955L55.8175 137.467L62.5079 140.273L62.5122 140.278Z" fill="url(#paint74_linear_20_11733)"/>
<path style="mix-blend-mode:multiply" opacity="0.3" fill-rule="evenodd" clip-rule="evenodd" d="M53.6314 140.278C54.3703 144.839 54.3748 157.969 54.3132 163.639C54.1064 182.641 51.2825 202.84 49.0128 221.649C48.6565 209.323 48.5289 196.616 47.9043 184.436C47.2181 171.002 45.6918 160.124 43.0438 144.777L53.6314 140.273V140.278Z" fill="url(#paint75_linear_20_11733)"/>
<path fill-rule="evenodd" clip-rule="evenodd" d="M34.8666 141.865C33.7625 145.314 32.3066 147.918 30.7846 154.969C29.1307 162.631 28.6557 169.858 27.4153 177.305C24.9828 191.909 21.9389 206.693 17.6986 222.506C20.1487 224.609 24.9476 224.609 26.6983 223.971C31.9327 211.703 35.1525 199.734 39.7623 187.295C46.0788 170.25 52.9671 153.179 58.4303 136.987L34.8666 141.865Z" fill="url(#paint76_linear_20_11733)"/>
<path fill-rule="evenodd" clip-rule="evenodd" d="M42.5643 74.152C37.4706 71.9879 34.871 74.2136 32.8784 77.8469C30.7891 81.6562 30.5603 83.596 29.144 85.0167C26.7379 87.4272 23.6017 86.9346 17.184 87.3568C5.87063 88.1046 5.2724 98.7582 8.53181 106.363C12.3938 115.381 23.4609 121.433 32.223 122.63C43.0613 124.108 46.3427 118.948 46.6243 112.698C46.809 108.576 45.4278 105.866 45.7577 104.252C47.0993 97.7113 52.976 99.6951 53.3719 92.3185C53.5962 88.2058 49.7121 85.329 50.1476 80.143C54.8366 70.7651 45.9337 70.8618 42.5643 74.1476V74.152Z" fill="url(#paint77_linear_20_11733)"/>
<path fill-rule="evenodd" clip-rule="evenodd" d="M8.06989 105.202C8.21065 105.594 8.36462 105.985 8.52737 106.364C12.3894 115.381 23.4564 121.433 32.2186 122.63C43.0569 124.108 46.3383 118.948 46.6198 112.698C46.8045 108.576 45.4234 105.867 45.7533 104.252C47.0949 97.7115 52.9715 99.6953 53.3674 92.3187C53.5917 88.2059 49.7077 85.3292 50.1431 80.1432C50.2355 79.9628 50.3191 79.7825 50.3983 79.6065C47.8955 80.2971 44.5612 79.7473 40.8752 77.9395C39.9778 80.1256 40.0438 82.5361 39.8371 84.9113C37.453 83.5346 36.7492 85.294 36.5821 87.8497C36.3357 91.5533 36.2082 92.4155 34.9809 93.0137C27.3185 96.7482 26.6719 97.4739 20.5269 104.683C16.1107 109.861 13.533 108.717 8.06549 105.198L8.06989 105.202Z" fill="#48202D"/>
<path fill-rule="evenodd" clip-rule="evenodd" d="M34.4312 112.522C34.9546 121.803 32.0691 140.876 31.5369 149.946C41.6318 152.11 54.0492 152.567 63.8055 149.242C63.3128 139.56 61.4126 117.488 59.5828 107.455C58.7646 102.964 56.7016 98.0766 53.1255 97.0385C50.5699 96.2951 47.7503 95.9828 44.8956 96.0972C38.6319 96.3479 32.4914 98.2042 28.0135 103.645L34.4312 112.517V112.522Z" fill="url(#paint78_linear_20_11733)"/>
<path style="mix-blend-mode:multiply" opacity="0.5" fill-rule="evenodd" clip-rule="evenodd" d="M34.4311 112.522C34.9546 121.803 32.0691 140.876 31.5368 149.946L31.7084 149.981C34.4576 139.745 40.3474 118.06 36.5865 107.798C34.9722 109.892 34.739 111.792 34.4311 112.522Z" fill="url(#paint79_linear_20_11733)"/>
<path fill-rule="evenodd" clip-rule="evenodd" d="M41.4338 90.8496C41.4338 93.5328 41.4075 94.2762 40.7301 96.8758C41.4383 99.5326 46.1492 101.103 47.3061 96.9066C46.9102 95.6442 46.9278 94.7688 46.9674 93.7263L44.7944 91.7689L41.4294 90.8496H41.4338Z" fill="url(#paint80_linear_20_11733)"/>
<path fill-rule="evenodd" clip-rule="evenodd" d="M41.4339 90.8496C41.4339 91.637 41.4339 92.2572 41.4119 92.807C42.2036 94.307 44.9352 96.3084 47.0685 95.9433C46.9234 95.1515 46.941 94.4829 46.9718 93.7263L44.7989 91.7689L41.4339 90.8496Z" fill="url(#paint81_linear_20_11733)"/>
<path fill-rule="evenodd" clip-rule="evenodd" d="M51.0185 81.0494C51.3308 85.3117 51.9247 88.791 50.3939 92.0548C49.0831 94.8524 47.0818 94.5665 45.0188 93.546C42.9162 92.5035 41.8033 91.8437 40.3782 90.0446C39.8591 89.7631 39.2697 89.7279 38.6891 89.1297C37.8269 88.2412 37.2683 86.6577 37.9721 85.6284C38.2888 85.1709 39.041 85.5052 39.5424 86.3718C40.1714 87.4538 40.5365 86.3982 40.5541 85.624C40.5937 83.4906 41.1743 82.1666 41.601 79.9497C44.4293 81.3881 48.1814 83.2443 51.0229 81.0494H51.0185Z" fill="url(#paint82_linear_20_11733)"/>
<path fill-rule="evenodd" clip-rule="evenodd" d="M51.0185 81.0494C51.0669 81.718 51.1241 82.3646 51.1769 82.998C48.2694 84.0669 45.2079 83.4466 42.0409 81.0494C41.3547 83.0024 41.7242 84.5463 41.3063 85.9407C40.9676 87.0755 40.4794 87.5814 39.7976 87.3351C38.8343 86.992 38.975 86.3366 37.7741 86.0111C37.8225 85.8747 37.8885 85.7472 37.9721 85.6284C38.2888 85.1709 39.041 85.5052 39.5424 86.3718C40.1714 87.4538 40.5365 86.3982 40.5541 85.624C40.5937 83.4906 41.1743 82.1666 41.601 79.9497C44.4294 81.3881 48.1814 83.2443 51.0229 81.0494H51.0185Z" fill="#DA9569"/>
<path fill-rule="evenodd" clip-rule="evenodd" d="M49.1447 82.0567C45.8941 82.5889 40.8136 80.5303 40.6948 77.3589C40.5893 74.447 43.9147 72.4939 46.7562 71.9749C54.5506 70.5585 56.2662 80.8866 49.1447 82.0523V82.0567Z" fill="#632E40"/>
<path fill-rule="evenodd" clip-rule="evenodd" d="M49.1447 82.0566C46.158 82.5448 41.6186 80.8426 40.818 78.1022C40.84 78.0494 40.8576 77.9966 40.884 77.9394C46.5451 80.715 51.3704 80.5258 53.6402 77.4424C53.4994 79.5581 52.0698 81.5771 49.1491 82.0566H49.1447Z" fill="#48202D"/>
<path fill-rule="evenodd" clip-rule="evenodd" d="M36.3974 121.513L59.0637 104.67C60.3437 103.72 62.1648 104.024 63.1149 105.304L74.1468 120.158C75.0969 121.438 74.7889 123.259 73.5133 124.209L50.847 141.052C49.567 142.002 47.7459 141.698 46.7958 140.418L35.764 125.564C34.8139 124.284 35.1218 122.463 36.3974 121.513Z" fill="url(#paint83_linear_20_11733)"/>
<path fill-rule="evenodd" clip-rule="evenodd" d="M38.4915 120.545L64.105 108.655C65.5521 107.983 67.272 108.655 67.9406 110.098L75.7263 126.884C76.3949 128.331 75.7262 130.051 74.2835 130.719L48.6656 142.609C47.2185 143.277 45.4986 142.609 44.83 141.166L37.0444 124.381C36.3758 122.934 37.0444 121.214 38.4871 120.545H38.4915Z" fill="#000002"/>
<path fill-rule="evenodd" clip-rule="evenodd" d="M51.7399 125.832C49.7121 127.684 48.3001 129.426 48.1066 130.882C47.6271 134.445 51.4408 137.581 56.4245 136.376C60.634 135.36 66.0752 132.668 68.644 131.344C74.3007 128.432 72.6028 122.397 64.8743 120.937C69.5105 114.242 62.2087 112.46 56.165 113.613C51.0581 114.585 42.6479 119.811 45.01 123.681C45.683 124.786 49.5669 125.714 51.7399 125.832Z" fill="#171E29"/>
<path fill-rule="evenodd" clip-rule="evenodd" d="M53.1519 125.45C51.1417 127.829 49.7517 129.879 49.6285 131.493C49.4922 133.257 50.7722 134.511 51.929 135.325C54.5814 137.194 64.3464 132.294 67.7906 130.521C72.8623 127.908 69.4797 121.715 62.8201 121.39C66.9725 115.39 62.0196 113.6 56.6048 114.629C52.2018 115.469 44.9791 119.881 46.4131 123.325C46.8969 124.486 50.5435 124.68 53.1475 125.45H53.1519Z" fill="#2B374A"/>
<path opacity="0.5" fill-rule="evenodd" clip-rule="evenodd" d="M75.8491 128.951C75.6071 129.708 75.0573 130.363 74.2831 130.724L48.6653 142.613C47.2181 143.282 45.4982 142.613 44.8296 141.171L37.044 124.385C36.6525 123.545 36.7185 122.613 37.1232 121.847C47.8823 120.013 65.9608 122.533 75.8491 128.955V128.951Z" fill="#566E93"/>
<path fill-rule="evenodd" clip-rule="evenodd" d="M68.9871 131.665C67.9578 130.592 66.5414 129.127 65.9916 128.889C64.518 128.252 63.9726 129.919 63.0841 132.685C62.4859 134.546 62.3891 134.594 63.3612 136.279C63.9462 137.291 64.7468 138.448 65.5254 137.959C66.4755 137.366 68.6528 135.624 69.4621 134.397C70.1483 133.358 70.2539 132.985 68.9871 131.665Z" fill="url(#paint84_linear_20_11733)"/>
<path fill-rule="evenodd" clip-rule="evenodd" d="M63.7043 135.676C62.6046 136.156 62.5914 136.354 61.4434 135.751C60.4273 135.219 60.3569 134.647 60.5725 134.282C60.8936 133.737 62.1164 133.451 63.282 133.262C65.5649 132.888 65.257 131.713 63.5987 131.506C62.7146 131.396 61.4434 131.594 59.9566 131.638C58.8174 131.669 58.0036 131.524 56.4729 131.612C54.9113 131.704 53.605 132.289 51.674 132.413L49.5846 135.874C51.0713 136.244 51.6299 136.635 52.2325 137.326C53.0243 138.232 53.7765 139.2 54.5067 140.176C55.4392 141.421 55.7779 141.94 56.4861 142.002C58.2148 142.147 61.3686 139.279 62.8993 137.405C63.4975 136.67 63.6251 136.455 63.6999 135.681L63.7043 135.676Z" fill="url(#paint85_linear_20_11733)"/>
<path fill-rule="evenodd" clip-rule="evenodd" d="M25.4623 106.637C17.3644 117 12.5258 127.988 31.1805 134.207C35.1569 135.531 45.6785 137.612 51.6255 137.458C53.0375 137.423 54.124 132.611 52.4305 131.955C48.1726 130.31 39.7404 127.469 36.5865 126.07C26.2628 121.5 30.0325 119.797 37.2683 112.737C39.9515 109.949 40.5101 105.159 37.7214 102.475C35.9003 100.725 35.1086 98.0767 33.3843 99.0356C30.5295 100.619 27.2306 104.371 25.4579 106.641L25.4623 106.637Z" fill="url(#paint86_linear_20_11733)"/>
<path style="mix-blend-mode:multiply" opacity="0.5" fill-rule="evenodd" clip-rule="evenodd" d="M52.8528 132.254C52.7384 132.122 52.6021 132.017 52.435 131.955C48.177 130.31 39.7448 127.468 36.5909 126.07C26.2673 121.499 30.0369 119.797 37.2727 112.737C37.4267 112.579 37.5499 112.434 37.5983 112.381C37.5279 110.951 37.0836 109.157 36.5733 107.767C34.0485 109.289 30.7363 112.553 28.99 114.937C25.8362 119.243 25.9242 122.766 28.8801 125.366C32.7113 128.74 41.4383 130.446 52.8528 132.259V132.254Z" fill="url(#paint87_linear_20_11733)"/>
</g>
<defs>
<radialGradient id="paint0_radial_20_11733" cx="0" cy="0" r="1" gradientUnits="userSpaceOnUse" gradientTransform="translate(141.188 336.326) rotate(-90.3106) scale(385.267 388.134)">
<stop offset="0.367962" stop-color="#FCFCFC"/>
<stop offset="1" stop-color="#D2E7FF"/>
</radialGradient>
<linearGradient id="paint1_linear_20_11733" x1="165.432" y1="145.785" x2="164.926" y2="160.239" gradientUnits="userSpaceOnUse">
<stop stop-color="#CF8D61"/>
<stop offset="1" stop-color="#E8A476"/>
</linearGradient>
<linearGradient id="paint2_linear_20_11733" x1="177.375" y1="142.481" x2="168.401" y2="112.183" gradientUnits="userSpaceOnUse">
<stop stop-color="#BED2E8"/>
<stop offset="1" stop-color="#CEE0F3"/>
</linearGradient>
<linearGradient id="paint3_linear_20_11733" x1="176.112" y1="143.233" x2="167.852" y2="112.843" gradientUnits="userSpaceOnUse">
<stop stop-color="#BED2E8"/>
<stop offset="1" stop-color="#CEE0F3"/>
</linearGradient>
<linearGradient id="paint4_linear_20_11733" x1="177.058" y1="226.746" x2="155.487" y2="224.503" gradientUnits="userSpaceOnUse">
<stop stop-color="#072C47"/>
<stop offset="1" stop-color="#104E7A"/>
</linearGradient>
<linearGradient id="paint5_linear_20_11733" x1="177.687" y1="223.122" x2="168.551" y2="222.137" gradientUnits="userSpaceOnUse">
<stop stop-color="#072C47"/>
<stop offset="1" stop-color="#104E7A"/>
</linearGradient>
<linearGradient id="paint6_linear_20_11733" x1="197.943" y1="227.336" x2="188.121" y2="225.053" gradientUnits="userSpaceOnUse">
<stop stop-color="#072C47"/>
<stop offset="1" stop-color="#104E7A"/>
</linearGradient>
<linearGradient id="paint7_linear_20_11733" x1="191.741" y1="224.833" x2="194.367" y2="220.074" gradientUnits="userSpaceOnUse">
<stop stop-color="#072C47"/>
<stop offset="1" stop-color="#104E7A"/>
</linearGradient>
<linearGradient id="paint8_linear_20_11733" x1="174.445" y1="131.159" x2="185.798" y2="224.384" gradientUnits="userSpaceOnUse">
<stop stop-color="#105B91"/>
<stop offset="1" stop-color="#0A3C5F"/>
</linearGradient>
<linearGradient id="paint9_linear_20_11733" x1="179.539" y1="144.566" x2="189.247" y2="223.117" gradientUnits="userSpaceOnUse">
<stop stop-color="#105B91"/>
<stop offset="1" stop-color="#0A3C5F"/>
</linearGradient>
<linearGradient id="paint10_linear_20_11733" x1="179.512" y1="132.69" x2="205.429" y2="223.962" gradientUnits="userSpaceOnUse">
<stop stop-color="#105B91"/>
<stop offset="1" stop-color="#0A3C5F"/>
</linearGradient>
<linearGradient id="paint11_linear_20_11733" x1="182.253" y1="131.99" x2="208.403" y2="223.914" gradientUnits="userSpaceOnUse">
<stop stop-color="#105B91"/>
<stop offset="1" stop-color="#0A3C5F"/>
</linearGradient>
<linearGradient id="paint12_linear_20_11733" x1="179.64" y1="99.9417" x2="179.53" y2="144.892" gradientUnits="userSpaceOnUse">
<stop stop-color="#31ADCC"/>
<stop offset="1" stop-color="#198AA6"/>
</linearGradient>
<linearGradient id="paint13_linear_20_11733" x1="175.483" y1="94.0124" x2="179.174" y2="132.668" gradientUnits="userSpaceOnUse">
<stop stop-color="#105B91"/>
<stop offset="1" stop-color="#0A3C5F"/>
</linearGradient>
<linearGradient id="paint14_linear_20_11733" x1="170.939" y1="133.086" x2="162.718" y2="99.1456" gradientUnits="userSpaceOnUse">
<stop stop-color="#BED2E8"/>
<stop offset="1" stop-color="#CEE0F3"/>
</linearGradient>
<linearGradient id="paint15_linear_20_11733" x1="188.547" y1="138.302" x2="167.333" y2="104.01" gradientUnits="userSpaceOnUse">
<stop stop-color="#BED2E8"/>
<stop offset="1" stop-color="#CEE0F3"/>
</linearGradient>
<linearGradient id="paint16_linear_20_11733" x1="203.032" y1="200.095" x2="180.335" y2="99.0398" gradientUnits="userSpaceOnUse">
<stop stop-color="#BED2E8"/>
<stop offset="1" stop-color="#CEE0F3"/>
</linearGradient>
<linearGradient id="paint17_linear_20_11733" x1="190.043" y1="150.614" x2="189.594" y2="157.564" gradientUnits="userSpaceOnUse">
<stop stop-color="#E8A476"/>
<stop offset="1" stop-color="#F1B287"/>
</linearGradient>
<linearGradient id="paint18_linear_20_11733" x1="199.359" y1="129.637" x2="186.638" y2="89.2003" gradientUnits="userSpaceOnUse">
<stop stop-color="#BED2E8"/>
<stop offset="1" stop-color="#CEE0F3"/>
</linearGradient>
<linearGradient id="paint19_linear_20_11733" x1="184.386" y1="85.2721" x2="182.433" y2="87.2603" gradientUnits="userSpaceOnUse">
<stop stop-color="#E8A476"/>
<stop offset="1" stop-color="#F1B287"/>
</linearGradient>
<linearGradient id="paint20_linear_20_11733" x1="184.052" y1="82.5803" x2="184.452" y2="84.1199" gradientUnits="userSpaceOnUse">
<stop stop-color="#CF8D61"/>
<stop offset="1" stop-color="#E8A476"/>
</linearGradient>
<linearGradient id="paint21_linear_20_11733" x1="179.561" y1="65.2758" x2="188.424" y2="72.8723" gradientUnits="userSpaceOnUse">
<stop stop-color="#632E40"/>
<stop offset="1" stop-color="#48202D"/>
</linearGradient>
<linearGradient id="paint22_linear_20_11733" x1="181.94" y1="76.0789" x2="179.719" y2="78.9292" gradientUnits="userSpaceOnUse">
<stop stop-color="#E8A476"/>
<stop offset="1" stop-color="#F1B287"/>
</linearGradient>
<linearGradient id="paint23_linear_20_11733" x1="158.452" y1="93.6074" x2="151.264" y2="124.816" gradientUnits="userSpaceOnUse">
<stop stop-color="#31ADCC"/>
<stop offset="1" stop-color="#198AA6"/>
</linearGradient>
<linearGradient id="paint24_linear_20_11733" x1="164.051" y1="90.5198" x2="155.927" y2="115.394" gradientUnits="userSpaceOnUse">
<stop stop-color="#31ADCC"/>
<stop offset="1" stop-color="#198AA6"/>
</linearGradient>
<linearGradient id="paint25_linear_20_11733" x1="182.838" y1="167.677" x2="147.495" y2="204.507" gradientUnits="userSpaceOnUse">
<stop stop-color="#31ADCC"/>
<stop offset="1" stop-color="#198AA6"/>
</linearGradient>
<linearGradient id="paint26_linear_20_11733" x1="121.692" y1="228.787" x2="129.667" y2="223.944" gradientUnits="userSpaceOnUse">
<stop stop-color="#BED2E8"/>
<stop offset="1" stop-color="#CEE0F3"/>
</linearGradient>
<linearGradient id="paint27_linear_20_11733" x1="186.154" y1="188.764" x2="157.739" y2="218.376" gradientUnits="userSpaceOnUse">
<stop stop-color="#31ADCC"/>
<stop offset="1" stop-color="#198AA6"/>
</linearGradient>
<linearGradient id="paint28_linear_20_11733" x1="140.417" y1="228.053" x2="158.117" y2="224.75" gradientUnits="userSpaceOnUse">
<stop stop-color="#BED2E8"/>
<stop offset="1" stop-color="#CEE0F3"/>
</linearGradient>
<linearGradient id="paint29_linear_20_11733" x1="176.671" y1="140.876" x2="136.463" y2="182.773" gradientUnits="userSpaceOnUse">
<stop stop-color="#31ADCC"/>
<stop offset="1" stop-color="#198AA6"/>
</linearGradient>
<linearGradient id="paint30_linear_20_11733" x1="177.383" y1="138.285" x2="135.565" y2="181.858" gradientUnits="userSpaceOnUse">
<stop stop-color="#31ADCC"/>
<stop offset="1" stop-color="#198AA6"/>
</linearGradient>
<linearGradient id="paint31_linear_20_11733" x1="173.478" y1="131.335" x2="129.887" y2="176.756" gradientUnits="userSpaceOnUse">
<stop stop-color="#31ADCC"/>
<stop offset="1" stop-color="#198AA6"/>
</linearGradient>
<linearGradient id="paint32_linear_20_11733" x1="171.419" y1="127.847" x2="126.961" y2="174.174" gradientUnits="userSpaceOnUse">
<stop stop-color="#31ADCC"/>
<stop offset="1" stop-color="#198AA6"/>
</linearGradient>
<linearGradient id="paint33_linear_20_11733" x1="143.562" y1="89.3187" x2="135.271" y2="131.498" gradientUnits="userSpaceOnUse">
<stop stop-color="#31ADCC"/>
<stop offset="1" stop-color="#198AA6"/>
</linearGradient>
<linearGradient id="paint34_linear_20_11733" x1="158.522" y1="90.7089" x2="154.207" y2="133.477" gradientUnits="userSpaceOnUse">
<stop stop-color="#31ADCC"/>
<stop offset="1" stop-color="#198AA6"/>
</linearGradient>
<linearGradient id="paint35_linear_20_11733" x1="129.75" y1="84.8672" x2="120.949" y2="129.619" gradientUnits="userSpaceOnUse">
<stop stop-color="#31ADCC"/>
<stop offset="1" stop-color="#198AA6"/>
</linearGradient>
<linearGradient id="paint36_linear_20_11733" x1="138.71" y1="81.8279" x2="140.817" y2="83.8073" gradientUnits="userSpaceOnUse">
<stop stop-color="#E8A476"/>
<stop offset="1" stop-color="#F1B287"/>
</linearGradient>
<linearGradient id="paint37_linear_20_11733" x1="139.335" y1="78.8017" x2="139.124" y2="81.5772" gradientUnits="userSpaceOnUse">
<stop stop-color="#CF8D61"/>
<stop offset="1" stop-color="#E8A476"/>
</linearGradient>
<linearGradient id="paint38_linear_20_11733" x1="143.962" y1="63.2347" x2="135.095" y2="69.9911" gradientUnits="userSpaceOnUse">
<stop stop-color="#632E40"/>
<stop offset="1" stop-color="#48202D"/>
</linearGradient>
<linearGradient id="paint39_linear_20_11733" x1="141.116" y1="73.2637" x2="143.069" y2="76.0832" gradientUnits="userSpaceOnUse">
<stop stop-color="#E8A476"/>
<stop offset="1" stop-color="#F1B287"/>
</linearGradient>
<linearGradient id="paint40_linear_20_11733" x1="132.878" y1="125.815" x2="142.528" y2="129.074" gradientUnits="userSpaceOnUse">
<stop stop-color="#F7975F"/>
<stop offset="1" stop-color="#FAB07E"/>
</linearGradient>
<linearGradient id="paint41_linear_20_11733" x1="177.867" y1="122.78" x2="147.134" y2="129.963" gradientUnits="userSpaceOnUse">
<stop stop-color="#D2EEFC"/>
<stop offset="1" stop-color="#C3E6F7"/>
</linearGradient>
<linearGradient id="paint42_linear_20_11733" x1="159.718" y1="128.388" x2="159.318" y2="131.898" gradientUnits="userSpaceOnUse">
<stop stop-color="#CF8D61"/>
<stop offset="1" stop-color="#E8A476"/>
</linearGradient>
<linearGradient id="paint43_linear_20_11733" x1="124.3" y1="85.2545" x2="120.245" y2="116.098" gradientUnits="userSpaceOnUse">
<stop stop-color="#31ADCC"/>
<stop offset="1" stop-color="#198AA6"/>
</linearGradient>
<linearGradient id="paint44_linear_20_11733" x1="128.123" y1="87.8671" x2="124.239" y2="113.577" gradientUnits="userSpaceOnUse">
<stop stop-color="#31ADCC"/>
<stop offset="1" stop-color="#198AA6"/>
</linearGradient>
<linearGradient id="paint45_linear_20_11733" x1="112.16" y1="124.262" x2="116.519" y2="128.023" gradientUnits="userSpaceOnUse">
<stop stop-color="#CF8D61"/>
<stop offset="1" stop-color="#E8A476"/>
</linearGradient>
<linearGradient id="paint46_linear_20_11733" x1="70.729" y1="229.21" x2="81.3825" y2="226.79" gradientUnits="userSpaceOnUse">
<stop stop-color="#072C47"/>
<stop offset="1" stop-color="#104E7A"/>
</linearGradient>
<linearGradient id="paint47_linear_20_11733" x1="77.5821" y1="226.887" x2="75.4532" y2="222.084" gradientUnits="userSpaceOnUse">
<stop stop-color="#072C47"/>
<stop offset="1" stop-color="#104E7A"/>
</linearGradient>
<linearGradient id="paint48_linear_20_11733" x1="107.251" y1="230.278" x2="108.817" y2="224.424" gradientUnits="userSpaceOnUse">
<stop stop-color="#072C47"/>
<stop offset="1" stop-color="#104E7A"/>
</linearGradient>
<linearGradient id="paint49_linear_20_11733" x1="102.254" y1="224.582" x2="100.015" y2="220.799" gradientUnits="userSpaceOnUse">
<stop stop-color="#072C47"/>
<stop offset="1" stop-color="#104E7A"/>
</linearGradient>
<linearGradient id="paint50_linear_20_11733" x1="117.078" y1="158.906" x2="88.7459" y2="190.119" gradientUnits="userSpaceOnUse">
<stop stop-color="#105B91"/>
<stop offset="1" stop-color="#0A3C5F"/>
</linearGradient>
<linearGradient id="paint51_linear_20_11733" x1="115.582" y1="160.938" x2="65.9124" y2="192.766" gradientUnits="userSpaceOnUse">
<stop stop-color="#105B91"/>
<stop offset="1" stop-color="#0A3C5F"/>
</linearGradient>
<linearGradient id="paint52_linear_20_11733" x1="104.308" y1="107.367" x2="83.837" y2="132.769" gradientUnits="userSpaceOnUse">
<stop stop-color="#31ADCC"/>
<stop offset="1" stop-color="#198AA6"/>
</linearGradient>
<linearGradient id="paint53_linear_20_11733" x1="95.3615" y1="113.34" x2="78.7521" y2="133.543" gradientUnits="userSpaceOnUse">
<stop stop-color="#31ADCC"/>
<stop offset="1" stop-color="#198AA6"/>
</linearGradient>
<linearGradient id="paint54_linear_20_11733" x1="101.515" y1="121.944" x2="64.3465" y2="231.123" gradientUnits="userSpaceOnUse">
<stop stop-color="#D2EEFC"/>
<stop offset="1" stop-color="#C3E6F7"/>
</linearGradient>
<linearGradient id="paint55_linear_20_11733" x1="100.952" y1="116.494" x2="80.4412" y2="146.277" gradientUnits="userSpaceOnUse">
<stop stop-color="#D2EEFC"/>
<stop offset="1" stop-color="#C3E6F7"/>
</linearGradient>
<linearGradient id="paint56_linear_20_11733" x1="96.2017" y1="86.275" x2="98.1723" y2="88.2368" gradientUnits="userSpaceOnUse">
<stop stop-color="#E8A476"/>
<stop offset="1" stop-color="#F1B287"/>
</linearGradient>
<linearGradient id="paint57_linear_20_11733" x1="96.5755" y1="83.4906" x2="96.2632" y2="84.841" gradientUnits="userSpaceOnUse">
<stop stop-color="#CF8D61"/>
<stop offset="1" stop-color="#E8A476"/>
</linearGradient>
<linearGradient id="paint58_linear_20_11733" x1="96.8703" y1="63.8813" x2="90.5098" y2="74.4513" gradientUnits="userSpaceOnUse">
<stop stop-color="#632E40"/>
<stop offset="1" stop-color="#48202D"/>
</linearGradient>
<linearGradient id="paint59_linear_20_11733" x1="97.4553" y1="76.8222" x2="100.697" y2="79.1403" gradientUnits="userSpaceOnUse">
<stop stop-color="#E8A476"/>
<stop offset="1" stop-color="#F1B287"/>
</linearGradient>
<linearGradient id="paint60_linear_20_11733" x1="102.83" y1="119.032" x2="98.1634" y2="93.5154" gradientUnits="userSpaceOnUse">
<stop stop-color="#105B91"/>
<stop offset="1" stop-color="#0A3C5F"/>
</linearGradient>
<linearGradient id="paint61_linear_20_11733" x1="103.798" y1="126.422" x2="110.946" y2="126.571" gradientUnits="userSpaceOnUse">
<stop stop-color="#E8A476"/>
<stop offset="1" stop-color="#F1B287"/>
</linearGradient>
<linearGradient id="paint62_linear_20_11733" x1="98.1811" y1="105.506" x2="71.2129" y2="135.72" gradientUnits="userSpaceOnUse">
<stop stop-color="#D2EEFC"/>
<stop offset="1" stop-color="#C3E6F7"/>
</linearGradient>
<linearGradient id="paint63_linear_20_11733" x1="238.974" y1="162.706" x2="247.555" y2="202.712" gradientUnits="userSpaceOnUse">
<stop stop-color="#31ADCC"/>
<stop offset="1" stop-color="#198AA6"/>
</linearGradient>
<linearGradient id="paint64_linear_20_11733" x1="249.249" y1="183.732" x2="244.248" y2="203.852" gradientUnits="userSpaceOnUse">
<stop stop-color="#31ADCC"/>
<stop offset="1" stop-color="#198AA6"/>
</linearGradient>
<linearGradient id="paint65_linear_20_11733" x1="234.381" y1="154.322" x2="247.454" y2="203.983" gradientUnits="userSpaceOnUse">
<stop stop-color="#31ADCC"/>
<stop offset="1" stop-color="#198AA6"/>
</linearGradient>
<linearGradient id="paint66_linear_20_11733" x1="262.836" y1="140.524" x2="253.41" y2="197.605" gradientUnits="userSpaceOnUse">
<stop stop-color="#31ADCC"/>
<stop offset="1" stop-color="#198AA6"/>
</linearGradient>
<linearGradient id="paint67_linear_20_11733" x1="258.697" y1="146.458" x2="252.895" y2="199.435" gradientUnits="userSpaceOnUse">
<stop stop-color="#31ADCC"/>
<stop offset="1" stop-color="#198AA6"/>
</linearGradient>
<linearGradient id="paint68_linear_20_11733" x1="251.747" y1="209.099" x2="253.436" y2="229.61" gradientUnits="userSpaceOnUse">
<stop stop-color="#105B91"/>
<stop offset="1" stop-color="#0A3C5F"/>
</linearGradient>
<linearGradient id="paint69_linear_20_11733" x1="251.329" y1="204.309" x2="251.721" y2="208.993" gradientUnits="userSpaceOnUse">
<stop stop-color="#105B91"/>
<stop offset="1" stop-color="#0A3C5F"/>
</linearGradient>
<linearGradient id="paint70_linear_20_11733" x1="17.5842" y1="228.761" x2="26.3156" y2="226.359" gradientUnits="userSpaceOnUse">
<stop stop-color="#072C47"/>
<stop offset="1" stop-color="#104E7A"/>
</linearGradient>
<linearGradient id="paint71_linear_20_11733" x1="23.0167" y1="226.861" x2="21.134" y2="222.41" gradientUnits="userSpaceOnUse">
<stop stop-color="#072C47"/>
<stop offset="1" stop-color="#104E7A"/>
</linearGradient>
<linearGradient id="paint72_linear_20_11733" x1="58.7074" y1="229.302" x2="60.1414" y2="223.953" gradientUnits="userSpaceOnUse">
<stop stop-color="#072C47"/>
<stop offset="1" stop-color="#104E7A"/>
</linearGradient>
<linearGradient id="paint73_linear_20_11733" x1="54.1372" y1="224.099" x2="52.0962" y2="220.641" gradientUnits="userSpaceOnUse">
<stop stop-color="#072C47"/>
<stop offset="1" stop-color="#104E7A"/>
</linearGradient>
<linearGradient id="paint74_linear_20_11733" x1="33.5206" y1="164.224" x2="60.1501" y2="184.264" gradientUnits="userSpaceOnUse">
<stop stop-color="#298BE6"/>
<stop offset="1" stop-color="#1761A6"/>
</linearGradient>
<linearGradient id="paint75_linear_20_11733" x1="33.7714" y1="167.756" x2="59.2221" y2="186.908" gradientUnits="userSpaceOnUse">
<stop stop-color="#298BE6"/>
<stop offset="1" stop-color="#1761A6"/>
</linearGradient>
<linearGradient id="paint76_linear_20_11733" x1="29.6938" y1="173.452" x2="44.2578" y2="184.414" gradientUnits="userSpaceOnUse">
<stop stop-color="#298BE6"/>
<stop offset="1" stop-color="#1761A6"/>
</linearGradient>
<linearGradient id="paint77_linear_20_11733" x1="28.427" y1="81.4406" x2="31.1498" y2="103.839" gradientUnits="userSpaceOnUse">
<stop stop-color="#632E40"/>
<stop offset="1" stop-color="#48202D"/>
</linearGradient>
<linearGradient id="paint78_linear_20_11733" x1="31.3213" y1="115.02" x2="66.15" y2="141.153" gradientUnits="userSpaceOnUse">
<stop stop-color="#298BE6"/>
<stop offset="1" stop-color="#1761A6"/>
</linearGradient>
<linearGradient id="paint79_linear_20_11733" x1="22.5152" y1="116.208" x2="56.0462" y2="152.99" gradientUnits="userSpaceOnUse">
<stop stop-color="#298BE6"/>
<stop offset="1" stop-color="#1761A6"/>
</linearGradient>
<linearGradient id="paint80_linear_20_11733" x1="43.6464" y1="94.4653" x2="44.8076" y2="99.2863" gradientUnits="userSpaceOnUse">
<stop stop-color="#E8A476"/>
<stop offset="1" stop-color="#F1B287"/>
</linearGradient>
<linearGradient id="paint81_linear_20_11733" x1="44.4337" y1="93.0138" x2="43.8091" y2="94.2982" gradientUnits="userSpaceOnUse">
<stop stop-color="#CF8D61"/>
<stop offset="1" stop-color="#E8A476"/>
</linearGradient>
<linearGradient id="paint82_linear_20_11733" x1="46.246" y1="86.1958" x2="49.1315" y2="88.3863" gradientUnits="userSpaceOnUse">
<stop stop-color="#E8A476"/>
<stop offset="1" stop-color="#F1B287"/>
</linearGradient>
<linearGradient id="paint83_linear_20_11733" x1="52.712" y1="118.407" x2="56.8116" y2="126.549" gradientUnits="userSpaceOnUse">
<stop stop-color="#31ADCC"/>
<stop offset="1" stop-color="#198AA6"/>
</linearGradient>
<linearGradient id="paint84_linear_20_11733" x1="67.0429" y1="134.41" x2="64.0298" y2="132.633" gradientUnits="userSpaceOnUse">
<stop stop-color="#E8A476"/>
<stop offset="1" stop-color="#F1B287"/>
</linearGradient>
<linearGradient id="paint85_linear_20_11733" x1="53.9393" y1="135.149" x2="61.7381" y2="137.19" gradientUnits="userSpaceOnUse">
<stop stop-color="#E8A476"/>
<stop offset="1" stop-color="#F1B287"/>
</linearGradient>
<linearGradient id="paint86_linear_20_11733" x1="31.4665" y1="116.859" x2="58.0652" y2="139.701" gradientUnits="userSpaceOnUse">
<stop stop-color="#298BE6"/>
<stop offset="1" stop-color="#1761A6"/>
</linearGradient>
<linearGradient id="paint87_linear_20_11733" x1="31.5545" y1="115.522" x2="58.8306" y2="139.741" gradientUnits="userSpaceOnUse">
<stop stop-color="#298BE6"/>
<stop offset="1" stop-color="#1761A6"/>
</linearGradient>
<clipPath id="clip0_20_11733">
<rect width="284" height="282" fill="white"/>
</clipPath>
</defs>
</svg>
