<svg width="284" height="282" viewBox="0 0 284 282" fill="none" xmlns="http://www.w3.org/2000/svg">
<rect width="284" height="282" fill="url(#paint0_radial_20_11155)"/>
<g style="mix-blend-mode:multiply" opacity="0.65">
<path fill-rule="evenodd" clip-rule="evenodd" d="M156.608 242.753C215.368 242.753 263 239.365 263 235.186C263 231.006 215.368 227.618 156.608 227.618C97.8493 227.618 50.2168 231.006 50.2168 235.186C50.2168 239.365 97.8493 242.753 156.608 242.753Z" fill="#BCE3F8"/>
</g>
<g style="mix-blend-mode:multiply" opacity="0.65">
<path fill-rule="evenodd" clip-rule="evenodd" d="M156.608 238.843C211.841 238.843 256.616 237.206 256.616 235.185C256.616 233.165 211.841 231.527 156.608 231.527C101.376 231.527 56.6011 233.165 56.6011 235.185C56.6011 237.206 101.376 238.843 156.608 238.843Z" fill="#BCE3F8"/>
</g>
<path fill-rule="evenodd" clip-rule="evenodd" d="M125.55 223.001C125.91 224.783 126.994 226.142 127.165 227.451C127.462 229.705 126.162 231.968 123.498 231.991L106.063 232.144C106.985 226.187 116.308 229.489 119.435 222.884L123.493 223.114L125.55 223.001Z" fill="url(#paint1_linear_20_11155)"/>
<path fill-rule="evenodd" clip-rule="evenodd" d="M115.584 133.572C116.979 162.894 115.98 189.206 119.066 223.685C119.116 224.234 120.488 225.156 121.968 225.296C123.705 225.458 125.581 224.711 125.617 223.482C126.018 210.47 127.557 194.597 128.24 184.307C128.938 173.846 130.913 163.016 132.528 152.204C133.379 146.539 133.014 141.684 134.211 134.674L119.854 134.152L115.584 133.567V133.572Z" fill="url(#paint2_linear_20_11155)"/>
<path fill-rule="evenodd" clip-rule="evenodd" d="M115.264 135.813L116.906 184.99C118.98 186.039 120.744 186.376 123.7 186.808C124.551 203.249 125.554 225.44 125.613 223.482C126.008 210.47 127.552 194.597 128.236 184.307C129.153 170.485 131.808 148.699 134.206 134.674L119.849 134.152L115.26 135.804L115.264 135.813Z" fill="url(#paint3_linear_20_11155)"/>
<path fill-rule="evenodd" clip-rule="evenodd" d="M159.875 232.288C158.071 234.11 157.459 234.866 155.164 234.929C153.292 234.979 152.662 234.385 151.605 233.336C150.431 232.171 150.066 231.442 150.089 230.407C150.134 228.432 150.989 226.65 151.119 224.18L154.876 224.464L156.514 223.591C157.225 224.747 158.737 226.88 159.794 228.756C160.316 229.678 160.122 231.33 159.875 232.293V232.288Z" fill="url(#paint4_linear_20_11155)"/>
<path fill-rule="evenodd" clip-rule="evenodd" d="M139.696 136.686C141.113 139.691 143.736 142.153 145.302 149.581C145.63 151.133 145.837 152.443 145.99 153.662C146.899 160.901 147.277 167.799 148.451 175.092C151.043 191.182 153.738 207.884 156.609 223.667C157.059 226.155 151.821 225.98 151.317 224.77C146.008 211.964 142.175 198.862 137.486 185.886C130.998 167.934 122.792 150.701 117.172 133.644L139.696 136.686Z" fill="url(#paint5_linear_20_11155)"/>
<path fill-rule="evenodd" clip-rule="evenodd" d="M139.696 136.686C141.113 139.691 143.736 142.153 145.302 149.581C145.63 151.133 145.837 152.443 145.99 153.662C146.899 160.901 147.277 167.799 148.451 175.092C151.043 191.182 153.738 207.884 156.609 223.667C157.059 226.155 145.482 187.785 144.978 186.57C140.78 186.899 139.493 186.989 137.621 186.269C131.417 168.442 123.053 151.507 117.172 133.644L139.696 136.686Z" fill="url(#paint6_linear_20_11155)"/>
<path fill-rule="evenodd" clip-rule="evenodd" d="M120.353 174.467C118.368 157.729 118.49 140.83 118.629 123.363C118.773 140.096 123.052 158.431 126.053 174.188C124.87 174.548 121.163 174.858 120.353 174.467Z" fill="url(#paint7_linear_20_11155)"/>
<path fill-rule="evenodd" clip-rule="evenodd" d="M96.853 108.997C96.1286 109.167 95.4897 109.244 93.303 109.235C93.375 111.165 95.0128 110.922 96.6505 110.918C99.9395 111.489 100.569 110.553 103.269 108.736C98.1128 107.566 101.478 107.908 96.8575 108.997H96.853Z" fill="url(#paint8_linear_20_11155)"/>
<path fill-rule="evenodd" clip-rule="evenodd" d="M99.8359 108.331C97.0913 110.081 94.7426 111.021 91.7686 112.326C95.602 115.255 96.9743 116.911 99.1385 116.439C100.106 116.227 101.447 114.963 103.399 114.27C104.781 113.78 106.666 113.861 108.065 113.564L107.705 109.928C105.195 108.551 102.715 108.754 99.8359 108.331Z" fill="url(#paint9_linear_20_11155)"/>
<path fill-rule="evenodd" clip-rule="evenodd" d="M99.6377 109.419L80.1421 102.657L91.0575 112.637L109.145 118.441L99.3903 109.271L99.6377 109.419Z" fill="url(#paint10_linear_20_11155)"/>
<path fill-rule="evenodd" clip-rule="evenodd" d="M92.0069 113.321C93.3117 114.486 95.179 115.314 96.8752 116.146C98.2295 116.817 98.6119 116.884 100.488 115.831C98.315 115.764 98.684 115.179 98.2745 113.442C98.063 112.542 97.6176 111.863 96.2723 111.858C95.6154 111.858 94.9315 112.083 94.3376 111.611C93.1588 110.671 92.3264 110.194 91.872 110.383C91.5165 111.013 91.7369 113.082 92.0069 113.325V113.321Z" fill="url(#paint11_linear_20_11155)"/>
<path fill-rule="evenodd" clip-rule="evenodd" d="M104.128 108.65C105.343 109.564 105.802 111.854 105.887 113.924C109.604 114.306 113.676 113.316 117.149 109.609L120.105 104.295L117.388 92.1917C114.459 100.227 110.891 108.551 104.128 108.65Z" fill="#BCE5FA"/>
<path fill-rule="evenodd" clip-rule="evenodd" d="M119.858 59.2652C118.819 53.6455 126.373 53.299 129.923 54.6309C136.478 52.1697 137.666 63.4361 137.221 69.1638C135.759 87.9845 161.382 91.8045 142.885 106.139C141.248 107.408 139.106 106.607 135.115 106.234C120.704 102.693 131.426 96.4388 118.738 87.9395C115.089 80.2457 122.112 80.4436 122.769 72.7542C123.039 69.5777 120.798 66.1627 119.858 59.2607V59.2652Z" fill="url(#paint12_linear_20_11155)"/>
<path fill-rule="evenodd" clip-rule="evenodd" d="M120.074 83.1167C116.335 87.7331 114.036 92.9433 114.216 98.2525C114.454 105.456 115.84 113.24 115.467 120.533C114.495 139.426 113.104 160.829 114.049 182.044C116.825 182.435 118.643 182.44 121.586 182.525C118.922 163.003 118.472 143.741 118.634 123.363C118.805 143.273 122.117 165.347 125.91 182.795C133.428 182.714 141.54 181.621 150.476 179.331C149.707 172.01 148.91 161.945 147.637 151.916C145.446 134.657 142.629 128.488 139.025 119.584C136.596 113.582 136.686 112.309 141.108 103.863C143.246 99.7823 143.912 94.5451 143.138 89.5643C142.841 87.6611 142.931 85.7444 142.022 84.0031C139.894 79.9267 135.336 76.7952 129.392 77.0021C126.301 77.1101 123.84 78.4734 120.078 83.1167H120.074Z" fill="url(#paint13_linear_20_11155)"/>
<path style="mix-blend-mode:multiply" opacity="0.55" fill-rule="evenodd" clip-rule="evenodd" d="M139.727 106.823C140.082 105.919 140.537 104.938 141.099 103.858C143.236 99.7774 143.902 94.5402 143.128 89.5594C142.836 87.6607 142.921 85.753 142.017 84.0117C140.987 88.961 139.083 93.3344 137.302 97.5772C135.264 102.432 133.396 107.107 133.207 112.254C133.018 117.298 136.762 125.257 138.085 135.034C140.298 151.443 141.243 171.439 142.849 181.036C145.324 180.568 147.862 180.001 150.467 179.33C149.697 172.01 148.901 161.945 147.628 151.916C145.437 134.656 142.62 128.488 139.016 119.584C136.901 114.364 136.694 112.718 139.587 106.823H139.727Z" fill="url(#paint14_linear_20_11155)"/>
<path fill-rule="evenodd" clip-rule="evenodd" d="M125.342 72.8447C126.044 74.9234 126.4 78.6983 125.86 81.3934C128.766 79.7737 129.617 79.3147 132.01 76.9976L130.454 69.0112L125.342 72.8447Z" fill="url(#paint15_linear_20_11155)"/>
<path fill-rule="evenodd" clip-rule="evenodd" d="M125.342 72.8448C125.531 73.4027 125.923 75.117 125.972 75.9449C126.953 76.8852 130.454 73.5557 131.088 72.2464L130.458 69.0159L125.347 72.8493L125.342 72.8448Z" fill="url(#paint16_linear_20_11155)"/>
<path fill-rule="evenodd" clip-rule="evenodd" d="M120.375 58.1495C118.162 61.0291 118.571 70.9276 119.817 74.1672C120.857 76.8758 127.781 72.4844 128.767 70.8916C130.778 67.6251 134.494 63.8187 132.951 58.2755C131.534 53.1732 124.812 52.3903 120.38 58.1495H120.375Z" fill="url(#paint17_linear_20_11155)"/>
<path fill-rule="evenodd" clip-rule="evenodd" d="M120.375 58.1496C120.326 58.2126 119.939 58.811 119.624 59.6704C119.489 60.0438 119.372 60.5343 119.286 60.9347C120.389 64.1832 125.217 64.7862 126.04 67.5083C126.139 67.8277 126.715 68.3496 127.03 67.9717C127.822 67.0178 128.695 65.956 129.09 66.3699C130.179 67.5128 127.903 69.7804 128.168 71.5802C128.438 71.3237 128.645 71.0897 128.762 70.8963C130.773 67.6297 134.49 63.8233 132.946 58.2801C131.529 53.1778 124.807 52.3949 120.375 58.1541V58.1496Z" fill="#DA9569"/>
<path fill-rule="evenodd" clip-rule="evenodd" d="M132.542 78.2437C126.634 89.1501 121.23 86.059 119.439 101.01C119.196 91.9577 121.64 85.2401 123.408 82.446C124.906 80.0839 126.427 81.4607 132.537 78.2437H132.542Z" fill="url(#paint18_linear_20_11155)"/>
<path fill-rule="evenodd" clip-rule="evenodd" d="M126.085 77.1099C123.43 80.0884 122.724 83.22 122.472 84.5968C123.142 84.2683 124.128 84.0568 124.533 83.7644C125.127 81.7847 125.239 80.5204 126.13 79.0761C126.206 78.2842 126.13 77.6723 126.085 77.1099Z" fill="#2499B7"/>
<path fill-rule="evenodd" clip-rule="evenodd" d="M131.961 73.7217C130.494 76.6103 128.38 78.2795 126.13 79.0444C124.618 81.2221 124.542 83.6877 124.249 85.2805C125.968 85.4245 132.294 80.1107 132.681 77.1592C132.618 76.1603 132.42 74.4236 131.961 73.7262V73.7217Z" fill="#30AAC9"/>
<path fill-rule="evenodd" clip-rule="evenodd" d="M124.033 109.523C122.049 109.118 120.47 108.763 118.54 107.912C116.785 107.138 115.736 107.17 113.685 108.178C113.109 108.461 111.278 109.379 110.567 109.604C108.528 110.238 109.379 111.287 110.855 111.26C111.813 111.242 113.167 110.981 114.486 110.724C112.983 111.894 112.407 112.065 111.224 111.975C108.173 111.75 104.65 109.415 104.047 111.377C105.847 112.816 107.512 114.18 109.428 115.467C113.91 118.477 114.45 118.553 118.486 114.918C120.276 113.302 120.875 114.126 123.354 114.679C124.24 112.906 124.771 111.692 124.029 109.527L124.033 109.523Z" fill="url(#paint19_linear_20_11155)"/>
<path fill-rule="evenodd" clip-rule="evenodd" d="M141.441 82.8419C145.499 88.5336 156.865 102.99 154.728 112.731C151.551 127.206 129.459 118.387 121 114.31C119.88 113.833 120.042 109.406 121.833 108.466C143.673 111.791 149.027 113.366 129.972 91.9666C127.484 88.8576 127.992 84.3177 131.102 81.8296C134.211 79.3414 138.948 79.7284 141.437 82.8419H141.441Z" fill="url(#paint20_linear_20_11155)"/>
<path style="mix-blend-mode:multiply" opacity="0.55" fill-rule="evenodd" clip-rule="evenodd" d="M141.441 82.8421C145.5 88.5337 156.865 102.99 154.728 112.731C151.551 127.206 129.459 118.387 121.001 114.311C120.83 114.239 120.686 114.05 120.569 113.784C126.917 115.039 137.882 118.058 144.856 116.907C149.675 116.11 152.172 113.118 151.052 107.818C150.287 104.209 148.753 100.453 146.746 96.88C144.834 93.483 143.169 90.8194 141.338 88.3943C137.014 82.6621 134.706 82.4011 131.749 80.228C130.719 79.4721 130.224 78.4552 130.017 77.0469L129.878 76.9974C134.697 76.9794 138.562 79.1706 140.892 82.2392C141.086 82.4281 141.27 82.6306 141.441 82.8466V82.8421Z" fill="url(#paint21_linear_20_11155)"/>
<path fill-rule="evenodd" clip-rule="evenodd" d="M119.633 56.7101C118.171 62.5277 125.595 63.2341 126.647 66.9551C126.818 67.567 128.375 65.4073 129.041 65.5288C129.882 65.6818 130.544 66.8606 129.491 69.0158C128.96 70.1001 128.42 70.6311 128.348 71.9449C128.276 73.3172 128.533 74.487 128.951 75.4678C131.097 80.5026 133.756 78.2034 137.608 80.0347C140.771 81.5375 141.153 82.4553 142.994 84.984C145.806 88.8579 149.99 94.7161 152.604 100.646C158.273 91.778 153.733 89.3798 147.952 83.2112C141.162 75.9673 140.469 73.1327 141.851 65.3398C143.578 55.5897 134.818 48.6787 128.182 53.3626C125.73 51.3334 121.185 51.9813 119.637 56.7056L119.633 56.7101Z" fill="url(#paint22_linear_20_11155)"/>
<path fill-rule="evenodd" clip-rule="evenodd" d="M119.633 56.7098C118.171 62.5275 125.595 63.2339 126.647 66.9548C126.818 67.5668 128.375 65.4071 129.041 65.5286C129.882 65.6815 130.544 66.8604 129.491 69.0156C128.96 70.0999 128.42 70.6308 128.348 71.9446C128.276 73.3169 128.533 74.4867 128.951 75.4676C131.097 80.5024 133.756 78.2032 137.608 80.0345C140.771 81.5372 141.153 82.4551 142.994 84.9837C145.806 88.8577 149.99 94.7158 152.604 100.646C152.784 100.363 152.955 100.084 153.117 99.8136C149.666 90.7969 144.861 80.8893 138.098 77.7713C134.958 76.3225 131.867 74.7657 131.412 72.0346C131.021 69.686 132.793 68.7996 131.885 66.136C131.367 64.6242 129.927 63.8503 127.129 64.7232C123.511 60.8717 121.937 61.0742 119.682 56.5793L119.637 56.7143L119.633 56.7098Z" fill="#48202D"/>
<path fill-rule="evenodd" clip-rule="evenodd" d="M16.0217 76.8715L16.1657 122.004C16.1747 125.298 18.7843 127.975 21.9608 127.948L68.7181 127.552C71.8946 127.525 74.4862 124.808 74.4727 121.514L74.2793 59.0991C74.2703 55.8055 71.6607 53.1329 68.4841 53.1554L37.9425 53.4119L16.0262 76.867L16.0217 76.8715Z" fill="#D1EDFB"/>
<path opacity="0.7" fill-rule="evenodd" clip-rule="evenodd" d="M66.6573 76.6734L43.9222 76.8624C42.9593 76.8714 42.1944 76.0885 42.1899 75.1122L42.1809 72.0886C42.1809 71.1122 42.9368 70.2934 43.8996 70.2844L66.6349 70.0909C67.5752 70.0819 68.3356 70.8918 68.3401 71.8681L68.3491 74.8962C68.3491 75.8681 67.5932 76.6644 66.6528 76.6734H66.6573Z" fill="white"/>
<path opacity="0.7" fill-rule="evenodd" clip-rule="evenodd" d="M23.6977 87.9126C23.0363 87.9171 22.5054 87.3681 22.5009 86.6842L22.4919 84.5515C22.4919 83.8676 23.0229 83.3097 23.6798 83.3052L67.1435 82.9363C67.8049 82.9363 68.3403 83.4807 68.3403 84.1646L68.3493 86.2973C68.3493 86.9812 67.8183 87.5391 67.1614 87.5436L23.6977 87.9081V87.9126Z" fill="white"/>
<path opacity="0.7" fill-rule="evenodd" clip-rule="evenodd" d="M23.6977 98.5312C23.0363 98.5402 22.5054 97.9868 22.5009 97.3029L22.4919 95.1702C22.4919 94.4863 23.0229 93.9284 23.6798 93.9239L67.1435 93.5549C67.8049 93.5549 68.3403 94.0994 68.3403 94.7833L68.3493 96.916C68.3493 97.5999 67.8183 98.1578 67.1614 98.1623L23.6977 98.5267V98.5312Z" fill="white"/>
<path opacity="0.7" fill-rule="evenodd" clip-rule="evenodd" d="M23.6977 109.145C23.0363 109.154 22.5054 108.601 22.5009 107.917L22.4919 105.789C22.4919 105.105 23.0229 104.547 23.6798 104.543L67.1435 104.174C67.8049 104.174 68.3403 104.718 68.3403 105.402L68.3493 107.535C68.3493 108.218 67.8183 108.776 67.1614 108.781L23.6977 109.145Z" fill="white"/>
<path opacity="0.7" fill-rule="evenodd" clip-rule="evenodd" d="M23.6977 120.164C23.0363 120.169 22.5054 119.62 22.5009 118.936L22.4919 116.803C22.4919 116.119 23.0229 115.561 23.6798 115.557L67.1435 115.188C67.8049 115.188 68.3403 115.732 68.3403 116.416L68.3493 118.549C68.3493 119.233 67.8183 119.791 67.1614 119.795L23.6977 120.16V120.164Z" fill="white"/>
<g style="mix-blend-mode:multiply" opacity="0.5">
<path fill-rule="evenodd" clip-rule="evenodd" d="M16.0443 85.9466C19.3783 84.8668 27.5852 83.4 34.0148 81.3663C39.7604 79.5486 39.7649 77.0199 39.3555 70.9953L38.1631 53.4028H37.9022L16.0264 76.8579L16.0443 85.9466Z" fill="#B1C5DA"/>
</g>
<path fill-rule="evenodd" clip-rule="evenodd" d="M16.0217 76.8719L32.2149 76.7369C35.4139 76.7099 38.0055 73.9923 37.992 70.6987L37.938 53.4167L16.0217 76.8719Z" fill="#D1EDFB"/>
<path fill-rule="evenodd" clip-rule="evenodd" d="M227.491 157.887C225.557 160.154 224 162.368 222.79 164.514C223.19 165.225 223.541 165.954 223.941 166.678C223.172 166.341 222.61 166.094 222.047 165.909C218.646 172.694 218.691 178.849 221.035 184.325C222.88 185.117 223.366 185.225 225.669 185.477C224.553 185.945 223.438 186.413 222.326 186.885C225.26 191.879 230.484 194.448 228.891 202.394C228.828 202.705 228.769 203.015 228.715 203.33C230.079 204.212 231.446 205.094 232.81 205.976C230.673 205.836 229.849 205.823 228.481 206.084C228.598 209.782 230.866 213.679 240.81 217.265C241.781 217.188 244.175 216.018 244.674 215.33C244.234 211.883 245.268 205.85 246.155 201.112C246.875 197.256 246.632 194.547 245.777 192.473C244.539 193.085 243.262 193.526 241.993 194.084C243.019 192.257 243.518 191.371 243.919 189.585C240.801 186.161 235.604 184.397 232.022 178.705C231.806 178.363 231.586 177.999 231.361 177.621C230.663 177.922 229.953 178.183 229.246 178.494C229.827 177.463 230.187 176.82 230.461 176.006C228.13 171.592 225.984 165.351 227.482 157.896L227.491 157.887Z" fill="url(#paint23_linear_20_11155)"/>
<path style="mix-blend-mode:multiply" opacity="0.5" fill-rule="evenodd" clip-rule="evenodd" d="M228.495 195.798C229.183 197.576 229.439 199.668 228.895 202.394C228.832 202.705 228.774 203.015 228.72 203.33C230.083 204.212 231.451 205.094 232.814 205.976C230.677 205.836 229.853 205.823 228.486 206.084C228.603 209.782 230.87 213.679 240.814 217.265C241.786 217.188 244.179 216.018 244.679 215.33C244.238 211.884 245.273 205.85 246.159 201.112C246.879 197.256 246.636 194.548 245.781 192.473C244.544 193.085 243.266 193.526 241.997 194.084C243.023 192.257 243.522 191.371 243.923 189.585C241.952 187.425 239.158 185.927 236.463 183.682C235.073 188.307 231.05 191.164 228.486 195.807L228.495 195.798Z" fill="url(#paint24_linear_20_11155)"/>
<path style="mix-blend-mode:multiply" opacity="0.5" fill-rule="evenodd" clip-rule="evenodd" d="M226.308 183.123C224.72 182.471 222.443 180.779 221.075 179.15C222.699 180.181 224.049 181.243 225.579 181.796C225.3 181.238 225.048 180.653 224.828 180.041C222.825 174.498 224.085 169.585 225.651 164.28C224.616 168.496 223.716 172.505 224.549 176.68C224.945 175.38 225.75 174.399 226.807 172.842C225.993 174.737 225.102 176.383 224.976 178.359C225.125 178.831 225.296 179.303 225.494 179.78C226.501 182.21 228.018 184.136 229.669 185.899C229.498 184.203 229.997 182.781 230.726 180.82C230.425 182.655 230.105 184.883 230.524 186.795C232.818 189.134 235.244 191.285 236.863 194.102C237.705 190.493 237.498 191.146 238.317 187.578C238.596 191.483 238.47 192.972 237.664 195.717C238.155 196.887 238.501 198.174 238.659 199.627C239.05 203.262 239.023 205.526 239.253 207.487C241.291 203.361 240.355 205.301 243.091 199.438C242.834 202.857 242.947 203.231 239.725 209.885C240.242 211.64 241.214 213.525 243.176 216.387C242.542 216.72 241.835 217.017 241.295 217.161C237.718 211.82 237.709 209.746 237.646 205.737C236.094 203.015 234.114 199.937 231.995 197.872C233.93 198.606 235.455 199.703 237.565 202.947C237.52 201.989 237.444 200.923 237.318 199.712C236.976 196.477 235.442 194.021 233.52 191.735C229.79 190.196 229.017 190.214 227.334 189.782C229.475 189.562 230.789 189.71 232.081 190.102C230.092 187.933 227.923 185.787 226.308 183.114V183.123Z" fill="url(#paint25_linear_20_11155)"/>
<path fill-rule="evenodd" clip-rule="evenodd" d="M256.157 132.794C252.481 134.755 249.331 136.83 246.658 139.003C246.811 140.132 246.897 141.257 247.05 142.4C246.222 141.567 245.619 140.956 244.985 140.429C237.093 147.507 234.006 155.524 234.258 163.839C236.252 165.81 236.827 166.201 239.694 167.704C238.006 167.745 236.314 167.781 234.627 167.826C235.887 175.816 241.363 181.828 235.23 191.339C234.992 191.708 234.753 192.082 234.524 192.464C235.847 194.309 237.169 196.154 238.492 197.994C235.788 196.716 234.722 196.28 232.814 195.92C231.077 200.788 232.031 207.006 243.118 216.752C244.418 217.147 248.125 216.855 249.129 216.216C250.321 211.514 254.748 204.203 258.325 198.498C261.236 193.854 262.303 190.214 262.253 187.078C260.332 187.24 258.447 187.164 256.512 187.236C258.775 185.387 259.878 184.491 261.313 182.372C259.009 176.325 253.16 171.38 251.419 162.152C251.315 161.594 251.212 161.014 251.113 160.406C250.051 160.438 248.994 160.42 247.918 160.46C249.196 159.416 249.997 158.764 250.766 157.851C249.997 150.922 250.397 141.716 256.152 132.794H256.157Z" fill="url(#paint26_linear_20_11155)"/>
<path style="mix-blend-mode:multiply" opacity="0.5" fill-rule="evenodd" clip-rule="evenodd" d="M241.718 164.982C239.991 163.326 237.889 159.961 236.949 157.149C238.528 159.317 239.743 161.392 241.448 162.89C241.372 162.022 241.345 161.135 241.367 160.226C241.597 152.001 245.75 146.265 250.492 140.168C246.992 145.117 243.774 149.869 242.722 155.718C243.9 154.229 245.448 153.365 247.621 151.889C245.597 153.932 243.599 155.619 242.42 158.121C242.371 158.809 242.353 159.511 242.366 160.231C242.434 163.898 243.419 167.178 244.661 170.318C245.304 168.028 246.686 166.431 248.634 164.258C247.302 166.485 245.75 169.22 245.318 171.92C247.104 176.136 249.156 180.172 249.817 184.658C252.755 180.397 252.152 181.144 255.036 176.923C253.399 182.138 252.476 184.01 250.029 187.164C250.065 188.932 249.858 190.786 249.318 192.752C247.963 197.674 246.776 200.603 246.069 203.267C250.829 198.948 248.62 200.99 255.171 194.772C253.093 199.083 253.043 199.627 245.457 206.628C245.232 209.175 245.534 212.122 246.618 216.842C245.619 216.95 244.553 216.972 243.779 216.887C241.862 208.117 242.911 205.422 244.881 200.181C244.251 195.848 243.257 190.835 241.561 187.074C243.698 189.018 245.12 191.222 246.204 196.518C246.636 195.249 247.082 193.827 247.536 192.19C248.746 187.812 248.008 183.834 246.686 179.879C242.627 175.974 241.61 175.601 239.644 174.179C242.542 174.984 244.17 175.853 245.646 177.022C244.17 173.189 242.447 169.292 241.718 164.991V164.982Z" fill="url(#paint27_linear_20_11155)"/>
<path fill-rule="evenodd" clip-rule="evenodd" d="M227.833 213.296H254.969L249.714 234.929H233.089L227.833 213.296Z" fill="url(#paint28_linear_20_11155)"/>
<g style="mix-blend-mode:multiply" opacity="0.3">
<path fill-rule="evenodd" clip-rule="evenodd" d="M227.833 213.296H254.969L254.136 216.549L231.46 228.229L227.833 213.296Z" fill="#08365B"/>
</g>
<path d="M255.329 211.15H227.473C227.282 211.15 227.127 211.305 227.127 211.496V215.465C227.127 215.656 227.282 215.811 227.473 215.811H255.329C255.52 215.811 255.675 215.656 255.675 215.465V211.496C255.675 211.305 255.52 211.15 255.329 211.15Z" fill="url(#paint29_linear_20_11155)"/>
<path fill-rule="evenodd" clip-rule="evenodd" d="M166.219 124.074C166.305 125.388 174.246 126.603 174.026 123.642C173.823 120.893 170.296 117.514 167.722 110.864C164.154 101.654 178.948 92.1151 184.982 88.2367C188.639 86.221 189.971 81.6227 187.956 77.9602C185.503 73.5148 182.385 73.7128 179.105 74.9411C170.093 78.3156 161.261 87.2243 157.783 95.6741C153.855 105.204 156.375 114.639 166.224 124.074H166.219Z" fill="url(#paint30_linear_20_11155)"/>
<path style="mix-blend-mode:multiply" opacity="0.35" fill-rule="evenodd" clip-rule="evenodd" d="M169.045 125.338C171.335 125.694 174.156 125.424 174.026 123.642C173.823 120.893 170.296 117.514 167.722 110.864C165.342 104.718 171.132 98.4322 177.045 93.7709C176.887 91.9172 176.703 90.1534 176.491 88.5156C160.073 101.969 159.835 108.614 171.798 122.585L169.045 125.338Z" fill="url(#paint31_linear_20_11155)"/>
<path fill-rule="evenodd" clip-rule="evenodd" d="M211.015 232.625C208.374 234.425 207.456 235.203 204.477 234.852C202.048 234.564 201.337 233.759 200.144 232.333C198.826 230.749 198.48 229.831 198.682 228.625C199.073 226.322 200.486 224.396 201.071 221.521L205.881 222.547L208.144 221.822C208.864 223.307 210.457 226.083 211.51 228.472C212.027 229.651 211.501 231.545 211.015 232.625Z" fill="url(#paint32_linear_20_11155)"/>
<path fill-rule="evenodd" clip-rule="evenodd" d="M211.136 231.865C208.522 233.503 207.613 234.209 204.635 233.849C202.205 233.557 201.485 232.796 200.284 231.46C198.948 229.98 198.592 229.12 198.781 228.009C199.146 225.881 200.531 224.108 201.085 221.453L205.899 222.461L208.149 221.818C208.887 223.199 210.511 225.791 211.586 228.018C212.117 229.116 211.613 230.862 211.141 231.86L211.136 231.865Z" fill="url(#paint33_linear_20_11155)"/>
<g style="mix-blend-mode:multiply" opacity="0.5">
<path fill-rule="evenodd" clip-rule="evenodd" d="M200.113 224.351C200.491 223.478 200.855 222.542 201.08 221.458L205.895 222.466L208.144 221.822C208.437 222.367 208.864 223.1 209.341 223.923C207.847 226.587 201.143 225.831 200.118 224.355L200.113 224.351Z" fill="#BDD1E7"/>
</g>
<path fill-rule="evenodd" clip-rule="evenodd" d="M190.871 222.663C191.272 224.846 192.495 226.51 192.684 228.117C193.017 230.879 191.555 233.655 188.563 233.682L168.977 233.871C170.017 226.573 180.482 230.618 184.001 222.524L188.558 222.803L190.871 222.663Z" fill="url(#paint34_linear_20_11155)"/>
<path fill-rule="evenodd" clip-rule="evenodd" d="M190.871 222.65C191.272 224.652 192.495 226.177 192.684 227.649C193.017 230.182 191.555 232.724 188.563 232.751L168.977 232.926C170.017 226.236 180.482 229.943 184.001 222.524L188.558 222.78L190.871 222.65Z" fill="url(#paint35_linear_20_11155)"/>
<g style="mix-blend-mode:multiply" opacity="0.5">
<path fill-rule="evenodd" clip-rule="evenodd" d="M190.871 222.65C191.002 223.302 191.222 223.905 191.461 224.472C189.904 226.47 185.08 226.605 181.985 225.197C182.777 224.508 183.465 223.644 184.001 222.52L188.558 222.776L190.871 222.645V222.65Z" fill="#BDD1E7"/>
</g>
<path fill-rule="evenodd" clip-rule="evenodd" d="M173.472 129.235C171.195 143.655 171.375 157.513 173.04 171.209C173.989 178.988 180.581 217.732 182.948 223.352C184.356 224.751 189.912 224.571 191.325 223.114C191.856 193.305 187.442 164.672 194.56 133.527C196.324 127.867 192.72 124.101 187.06 122.337C181.4 120.573 175.236 123.579 173.472 129.239V129.235Z" fill="url(#paint36_linear_20_11155)"/>
<path style="mix-blend-mode:multiply" opacity="0.5" fill-rule="evenodd" clip-rule="evenodd" d="M185.467 131.034C185.292 132.141 180.104 197.629 191.33 223.114C191.861 193.305 187.447 164.672 194.565 133.527C194.268 130.674 187.645 125.181 185.467 131.034Z" fill="url(#paint37_linear_20_11155)"/>
<path fill-rule="evenodd" clip-rule="evenodd" d="M184.104 128.389C189.337 168.802 196.374 196.473 200.136 221.678C201.364 224.243 208.275 223.64 209.251 222.011C208.104 173.346 209.598 162.291 205.287 131.3C203.519 127.786 202.736 126.855 196.824 127.273C190.912 127.691 183.681 122.477 184.1 128.389H184.104Z" fill="url(#paint38_linear_20_11155)"/>
<path style="mix-blend-mode:multiply" opacity="0.5" fill-rule="evenodd" clip-rule="evenodd" d="M209.255 222.011C208.108 173.346 209.602 162.291 205.291 131.3C203.523 127.786 206.488 125.356 200.576 125.77C202.646 150.769 206.407 209.917 209.255 222.007V222.011Z" fill="url(#paint39_linear_20_11155)"/>
<path fill-rule="evenodd" clip-rule="evenodd" d="M205.242 94.6124C205.291 99.6742 205.255 106.837 205.287 113.888C205.341 125.433 207.042 133.887 207.685 144.803C197.089 147.579 181.472 148.029 171.231 144.047C171.173 135.34 173.166 124.479 173.13 114.113C173.085 101.118 173.148 85.4247 173.755 82.7611C174.826 78.0908 177.422 75.2337 181.175 74.1403C183.856 73.362 190.281 73.092 193.283 73.209C199.136 73.4429 207.411 75.1302 211.586 79.9805C213.876 82.6396 214.533 84.8038 215.779 88.1558C215.887 93.834 214.515 96.9925 210.479 98.3558C208.153 96.4751 206.929 95.3413 205.246 94.6079L205.242 94.6124Z" fill="url(#paint40_linear_20_11155)"/>
<path style="mix-blend-mode:multiply" opacity="0.35" fill-rule="evenodd" clip-rule="evenodd" d="M171.339 144.092L171.231 144.051C171.173 135.345 173.166 124.483 173.13 114.117C173.103 106.347 173.112 97.6088 173.256 91.2693C174.255 90.3829 175.33 89.465 176.491 88.5156C178.358 103.076 178.381 127.039 171.339 144.092Z" fill="url(#paint41_linear_20_11155)"/>
<path style="mix-blend-mode:multiply" opacity="0.35" fill-rule="evenodd" clip-rule="evenodd" d="M205.242 94.6124C205.292 99.6742 205.256 106.837 205.287 113.892C205.341 125.437 207.042 133.892 207.685 144.807L207.478 144.861C200.671 126.787 200.405 105.46 201.625 86.5811C206.682 89.0917 211.042 92.4257 213.993 95.9892C213.165 97.0691 212.014 97.8474 210.475 98.3694C208.149 96.4886 206.925 95.3548 205.242 94.6214V94.6124Z" fill="url(#paint42_linear_20_11155)"/>
<path fill-rule="evenodd" clip-rule="evenodd" d="M195.199 66.8872C195.303 68.8984 195.69 71.6475 196.05 73.6317C195.177 76.6868 192.279 79.0354 189.449 78.653C187.011 78.3245 186.421 74.6756 187.254 72.6374C187.375 71.6475 187.42 70.8106 187.447 69.8118L193.611 68.012L195.199 66.8872Z" fill="url(#paint43_linear_20_11155)"/>
<path fill-rule="evenodd" clip-rule="evenodd" d="M195.28 66.8243C195.312 67.4137 195.393 69.245 195.429 69.7759C192.792 73.4969 189.17 74.8197 186.975 73.6228C187.249 72.606 187.42 70.8063 187.447 69.8074L193.611 68.0077L195.28 66.8198V66.8243Z" fill="url(#paint44_linear_20_11155)"/>
<path fill-rule="evenodd" clip-rule="evenodd" d="M195.82 64.9976C197.427 64.8581 197.67 64.2327 197.737 63.1169C197.805 61.9651 197.859 62.262 198.277 61.2766C198.484 60.7952 198.583 60.3588 198.619 59.9313C198.75 58.5006 198.246 57.7986 197.985 56.7998C197.661 55.558 198.066 54.9416 198.061 54.0822C198.039 49.9158 193.764 47.4816 190.642 50.2802C188.666 48.2915 186.574 48.8315 184.986 50.4557C182.399 49.7403 180.316 50.4872 179.299 52.6289C177.328 56.7818 180.991 59.3374 183.245 59.6659L190.889 62.4015L195.825 64.9976H195.82Z" fill="url(#paint45_linear_20_11155)"/>
<path fill-rule="evenodd" clip-rule="evenodd" d="M195.821 64.9976C197.427 64.8581 197.67 64.2327 197.737 63.1169C197.805 61.965 197.859 62.262 198.277 61.2766C198.484 60.7952 198.583 60.3588 198.619 59.9313C198.75 58.5005 198.246 57.7986 197.985 56.7998L197.976 56.7593C197.486 58.6535 195.564 59.5309 194.732 57.3037C193.513 56.7998 192.59 55.9989 192.131 54.8965C191.546 53.4972 190.709 52.8674 189.216 53.7852C185.76 55.9089 183.241 58.739 179.056 56.5388C179.826 58.3656 181.814 59.4634 183.241 59.6748L190.885 62.4105L195.821 65.0066V64.9976Z" fill="#48202D"/>
<path fill-rule="evenodd" clip-rule="evenodd" d="M182.363 59.4279C183.195 63.4458 183.708 67.6617 186.295 70.9777C187.236 72.1835 188.361 72.782 190.354 71.7246C191.735 70.9957 193.085 69.8889 194.291 68.953C196.122 67.5267 195.591 66.7843 195.735 65.9654C195.794 65.637 195.924 65.2545 196.136 64.7911C196.68 63.6033 197.881 62.6404 197.553 61.2726C197.247 60.0128 196.122 59.6123 195.884 60.6022C195.551 61.9835 194.588 64.4312 193.971 57.8171C192.446 57.2187 192.1 56.9128 191.479 55.9769C190.871 55.0635 190.3 54.3706 189.283 55.3515C187.191 57.3582 185.423 59.2344 182.372 59.4369L182.363 59.4279Z" fill="url(#paint46_linear_20_11155)"/>
<path fill-rule="evenodd" clip-rule="evenodd" d="M182.363 59.4275C182.444 59.8189 182.52 60.2149 182.601 60.6108C186.615 60.1879 188.055 57.9697 190.061 55.7245C191.362 56.9799 191.708 57.3533 193.296 58.2172C193.386 58.6626 193.616 61.2137 194.259 62.3161C194.786 63.2114 195.263 62.928 195.654 62.1811C195.92 61.6817 196.244 59.675 197.265 60.5973C196.81 59.8999 196.064 59.8099 195.875 60.5973C195.542 61.9786 194.579 64.4263 193.962 57.8122C192.437 57.2138 192.091 56.9079 191.47 55.972C190.862 55.0586 190.291 54.3657 189.274 55.3466C187.182 57.3533 185.414 59.2295 182.363 59.432V59.4275Z" fill="#DA9569"/>
<path fill-rule="evenodd" clip-rule="evenodd" d="M199.676 117.532C193.881 118.445 193.904 116.695 190.885 117.123C188.176 117.505 185.76 118.918 183.321 120.173C180.091 121.833 181.314 122.891 183.492 122.27C185.197 121.784 187.042 121.046 188.783 120.61C186.34 121.743 185.148 121.415 186.345 123.431C187.249 124.961 188.527 127.03 189.746 127.035C191.163 127.035 193.796 126.418 195.532 125.806C196.716 125.388 197.026 125.028 198.218 123.656C198.718 123.08 199.181 122.832 200.968 122.513L200.225 119.656L199.676 117.537V117.532Z" fill="url(#paint47_linear_20_11155)"/>
<path fill-rule="evenodd" clip-rule="evenodd" d="M157.563 117.298L171.776 118.58C173.571 118.742 173.94 118.733 175.609 119.417L186.903 124.052C187.236 124.173 187.461 124.277 187.569 124.358C187.654 124.421 187.645 124.587 187.65 124.722C187.654 124.893 187.659 125.091 187.618 125.104C187.456 125.149 187.015 124.596 186.475 124.578L174.399 124.07C172.829 124.002 172.59 124.056 171.124 123.48L157.702 118.216C157.221 118.027 156.766 118.328 156.609 118.139C156.55 118.072 156.577 117.474 156.6 117.42C156.649 117.303 156.933 117.244 157.554 117.298H157.563Z" fill="#96CCE7"/>
<path fill-rule="evenodd" clip-rule="evenodd" d="M157.563 117.91L171.776 119.192C173.571 119.354 173.94 119.345 175.609 120.029L186.903 124.664C187.969 125.051 187.929 125.24 186.48 125.186L174.404 124.677C172.833 124.61 172.595 124.664 171.128 124.088L157.707 118.823C156.631 118.401 155.934 117.762 157.558 117.91H157.563Z" fill="url(#paint48_linear_20_11155)"/>
<path fill-rule="evenodd" clip-rule="evenodd" d="M163.191 120.965C162.584 122.634 162.273 122.544 163.164 123.494C163.942 124.321 165.828 126.058 167.218 126.67C168.221 127.111 169.292 127.282 170.556 126.913C172.563 126.328 173.355 126.094 175.42 124.407C176.239 123.737 175.888 123.633 173.944 123.318C173.013 123.17 171.987 123.021 171.123 122.499C169.409 121.464 167.573 121.559 165.936 121.847C165.319 121.955 165.243 121.775 164.793 121.604L163.187 120.96L163.191 120.965Z" fill="url(#paint49_linear_20_11155)"/>
<path fill-rule="evenodd" clip-rule="evenodd" d="M200.284 89.879C209.778 97.132 213.89 101.339 213.895 105.771C213.895 109.807 208.158 114.059 198.048 116.898C196.406 117.415 197.49 123.386 199.263 123.444C207.874 122.648 221.818 120.713 225.813 109.771C229.498 99.6741 218.997 87.0399 211.168 79.58C207.595 76.1785 202.489 74.1628 198.907 78.9906C196.545 82.1716 197.103 87.5169 200.284 89.8835V89.879Z" fill="url(#paint50_linear_20_11155)"/>
<path style="mix-blend-mode:multiply" opacity="0.35" fill-rule="evenodd" clip-rule="evenodd" d="M201.382 90.725C210.093 97.465 213.885 101.514 213.89 105.771C213.89 108.569 211.136 111.471 206.079 113.933C205.445 114.243 203.955 114.904 202.381 115.494C200.594 116.16 198.7 116.754 197.809 117.069C212.878 118.958 232.144 101.717 201.625 86.5811C201.535 87.9534 201.454 89.3347 201.386 90.7295L201.382 90.725Z" fill="url(#paint51_linear_20_11155)"/>
<defs>
<radialGradient id="paint0_radial_20_11155" cx="0" cy="0" r="1" gradientUnits="userSpaceOnUse" gradientTransform="translate(141.188 336.326) rotate(-90.3106) scale(385.267 388.134)">
<stop offset="0.367962" stop-color="#FCFCFC"/>
<stop offset="1" stop-color="#D2E7FF"/>
</radialGradient>
<linearGradient id="paint1_linear_20_11155" x1="124.65" y1="228.499" x2="104.673" y2="226.412" gradientUnits="userSpaceOnUse">
<stop stop-color="#072C47"/>
<stop offset="1" stop-color="#104E7A"/>
</linearGradient>
<linearGradient id="paint2_linear_20_11155" x1="125.883" y1="166.75" x2="103.35" y2="217.462" gradientUnits="userSpaceOnUse">
<stop stop-color="#E8A476"/>
<stop offset="1" stop-color="#F1B287"/>
</linearGradient>
<linearGradient id="paint3_linear_20_11155" x1="149.023" y1="259.189" x2="126.904" y2="166.566" gradientUnits="userSpaceOnUse">
<stop stop-color="#CF8D61"/>
<stop offset="1" stop-color="#E8A476"/>
</linearGradient>
<linearGradient id="paint4_linear_20_11155" x1="158.552" y1="230.196" x2="150.17" y2="227.739" gradientUnits="userSpaceOnUse">
<stop stop-color="#072C47"/>
<stop offset="1" stop-color="#104E7A"/>
</linearGradient>
<linearGradient id="paint5_linear_20_11155" x1="149.824" y1="165.306" x2="120.15" y2="196.91" gradientUnits="userSpaceOnUse">
<stop stop-color="#E8A476"/>
<stop offset="1" stop-color="#F1B287"/>
</linearGradient>
<linearGradient id="paint6_linear_20_11155" x1="158.534" y1="149.828" x2="126.782" y2="192.217" gradientUnits="userSpaceOnUse">
<stop stop-color="#CF8D61"/>
<stop offset="1" stop-color="#E8A476"/>
</linearGradient>
<linearGradient id="paint7_linear_20_11155" x1="120.155" y1="134.233" x2="122.553" y2="166.921" gradientUnits="userSpaceOnUse">
<stop stop-color="#105B91"/>
<stop offset="1" stop-color="#0A3C5F"/>
</linearGradient>
<linearGradient id="paint8_linear_20_11155" x1="105.469" y1="107.134" x2="95.9396" y2="110.256" gradientUnits="userSpaceOnUse">
<stop stop-color="#CF8D61"/>
<stop offset="1" stop-color="#E8A476"/>
</linearGradient>
<linearGradient id="paint9_linear_20_11155" x1="108.578" y1="109.883" x2="92.9969" y2="114.171" gradientUnits="userSpaceOnUse">
<stop stop-color="#CF8D61"/>
<stop offset="1" stop-color="#E8A476"/>
</linearGradient>
<linearGradient id="paint10_linear_20_11155" x1="107.557" y1="107.746" x2="84.7404" y2="112.7" gradientUnits="userSpaceOnUse">
<stop stop-color="#D2EEFC"/>
<stop offset="1" stop-color="#C3E6F7"/>
</linearGradient>
<linearGradient id="paint11_linear_20_11155" x1="98.3915" y1="115.615" x2="95.0485" y2="112.979" gradientUnits="userSpaceOnUse">
<stop stop-color="#E8A476"/>
<stop offset="1" stop-color="#F1B287"/>
</linearGradient>
<linearGradient id="paint12_linear_20_11155" x1="139.151" y1="72.9117" x2="131.57" y2="81.6764" gradientUnits="userSpaceOnUse">
<stop stop-color="#632E40"/>
<stop offset="1" stop-color="#48202D"/>
</linearGradient>
<linearGradient id="paint13_linear_20_11155" x1="151.025" y1="113.109" x2="118.171" y2="150.836" gradientUnits="userSpaceOnUse">
<stop stop-color="#D2EEFC"/>
<stop offset="1" stop-color="#C3E6F7"/>
</linearGradient>
<linearGradient id="paint14_linear_20_11155" x1="182.453" y1="104.142" x2="89.8516" y2="174.561" gradientUnits="userSpaceOnUse">
<stop stop-color="#D2EEFC"/>
<stop offset="1" stop-color="#C3E6F7"/>
</linearGradient>
<linearGradient id="paint15_linear_20_11155" x1="127.826" y1="75.1348" x2="130.868" y2="75.7423" gradientUnits="userSpaceOnUse">
<stop stop-color="#E8A476"/>
<stop offset="1" stop-color="#F1B287"/>
</linearGradient>
<linearGradient id="paint16_linear_20_11155" x1="128.222" y1="72.6244" x2="128.397" y2="74.1721" gradientUnits="userSpaceOnUse">
<stop stop-color="#CF8D61"/>
<stop offset="1" stop-color="#E8A476"/>
</linearGradient>
<linearGradient id="paint17_linear_20_11155" x1="123.961" y1="64.4891" x2="130.404" y2="65.4924" gradientUnits="userSpaceOnUse">
<stop stop-color="#E8A476"/>
<stop offset="1" stop-color="#F1B287"/>
</linearGradient>
<linearGradient id="paint18_linear_20_11155" x1="128.119" y1="78.7206" x2="125.464" y2="87.5483" gradientUnits="userSpaceOnUse">
<stop stop-color="#31ADCC"/>
<stop offset="1" stop-color="#198AA6"/>
</linearGradient>
<linearGradient id="paint19_linear_20_11155" x1="122.584" y1="112.074" x2="110.9" y2="112.794" gradientUnits="userSpaceOnUse">
<stop stop-color="#E8A476"/>
<stop offset="1" stop-color="#F1B287"/>
</linearGradient>
<linearGradient id="paint20_linear_20_11155" x1="143.488" y1="96.5919" x2="131.659" y2="115.732" gradientUnits="userSpaceOnUse">
<stop stop-color="#D2EEFC"/>
<stop offset="1" stop-color="#C3E6F7"/>
</linearGradient>
<linearGradient id="paint21_linear_20_11155" x1="146.269" y1="95.0668" x2="95.5072" y2="119.858" gradientUnits="userSpaceOnUse">
<stop stop-color="#D2EEFC"/>
<stop offset="1" stop-color="#C3E6F7"/>
</linearGradient>
<linearGradient id="paint22_linear_20_11155" x1="143.893" y1="70.739" x2="139.952" y2="74.442" gradientUnits="userSpaceOnUse">
<stop stop-color="#632E40"/>
<stop offset="1" stop-color="#48202D"/>
</linearGradient>
<linearGradient id="paint23_linear_20_11155" x1="230.61" y1="175.893" x2="238.002" y2="210.367" gradientUnits="userSpaceOnUse">
<stop stop-color="#31ADCC"/>
<stop offset="1" stop-color="#198AA6"/>
</linearGradient>
<linearGradient id="paint24_linear_20_11155" x1="239.46" y1="194.012" x2="235.149" y2="211.348" gradientUnits="userSpaceOnUse">
<stop stop-color="#31ADCC"/>
<stop offset="1" stop-color="#198AA6"/>
</linearGradient>
<linearGradient id="paint25_linear_20_11155" x1="226.65" y1="168.667" x2="237.916" y2="211.46" gradientUnits="userSpaceOnUse">
<stop stop-color="#31ADCC"/>
<stop offset="1" stop-color="#198AA6"/>
</linearGradient>
<linearGradient id="paint26_linear_20_11155" x1="251.167" y1="156.78" x2="243.046" y2="205.967" gradientUnits="userSpaceOnUse">
<stop stop-color="#31ADCC"/>
<stop offset="1" stop-color="#198AA6"/>
</linearGradient>
<linearGradient id="paint27_linear_20_11155" x1="247.603" y1="161.896" x2="242.605" y2="207.541" gradientUnits="userSpaceOnUse">
<stop stop-color="#31ADCC"/>
<stop offset="1" stop-color="#198AA6"/>
</linearGradient>
<linearGradient id="paint28_linear_20_11155" x1="241.61" y1="215.87" x2="243.073" y2="233.543" gradientUnits="userSpaceOnUse">
<stop stop-color="#105B91"/>
<stop offset="1" stop-color="#0A3C5F"/>
</linearGradient>
<linearGradient id="paint29_linear_20_11155" x1="241.255" y1="211.739" x2="241.592" y2="215.775" gradientUnits="userSpaceOnUse">
<stop stop-color="#105B91"/>
<stop offset="1" stop-color="#0A3C5F"/>
</linearGradient>
<linearGradient id="paint30_linear_20_11155" x1="184.068" y1="90.8643" x2="160.388" y2="113.051" gradientUnits="userSpaceOnUse">
<stop stop-color="#298BE6"/>
<stop offset="1" stop-color="#1761A6"/>
</linearGradient>
<linearGradient id="paint31_linear_20_11155" x1="187.069" y1="95.1972" x2="161.643" y2="119.021" gradientUnits="userSpaceOnUse">
<stop stop-color="#298BE6"/>
<stop offset="1" stop-color="#1761A6"/>
</linearGradient>
<linearGradient id="paint32_linear_20_11155" x1="144.289" y1="164.743" x2="182.282" y2="204.333" gradientUnits="userSpaceOnUse">
<stop stop-color="#31ADCC"/>
<stop offset="1" stop-color="#198AA6"/>
</linearGradient>
<linearGradient id="paint33_linear_20_11155" x1="210.016" y1="230.434" x2="201.44" y2="225.228" gradientUnits="userSpaceOnUse">
<stop stop-color="#BED2E8"/>
<stop offset="1" stop-color="#CEE0F3"/>
</linearGradient>
<linearGradient id="paint34_linear_20_11155" x1="140.721" y1="187.416" x2="171.267" y2="219.244" gradientUnits="userSpaceOnUse">
<stop stop-color="#31ADCC"/>
<stop offset="1" stop-color="#198AA6"/>
</linearGradient>
<linearGradient id="paint35_linear_20_11155" x1="189.886" y1="229.646" x2="170.858" y2="226.096" gradientUnits="userSpaceOnUse">
<stop stop-color="#BED2E8"/>
<stop offset="1" stop-color="#CEE0F3"/>
</linearGradient>
<linearGradient id="paint36_linear_20_11155" x1="194.826" y1="146.35" x2="169.103" y2="207.969" gradientUnits="userSpaceOnUse">
<stop stop-color="#298BE6"/>
<stop offset="1" stop-color="#1761A6"/>
</linearGradient>
<linearGradient id="paint37_linear_20_11155" x1="200.459" y1="148.168" x2="173.904" y2="211.784" gradientUnits="userSpaceOnUse">
<stop stop-color="#298BE6"/>
<stop offset="1" stop-color="#1761A6"/>
</linearGradient>
<linearGradient id="paint38_linear_20_11155" x1="206.363" y1="151.363" x2="181.666" y2="210.533" gradientUnits="userSpaceOnUse">
<stop stop-color="#298BE6"/>
<stop offset="1" stop-color="#1761A6"/>
</linearGradient>
<linearGradient id="paint39_linear_20_11155" x1="213.494" y1="153.342" x2="187.226" y2="216.27" gradientUnits="userSpaceOnUse">
<stop stop-color="#298BE6"/>
<stop offset="1" stop-color="#1761A6"/>
</linearGradient>
<linearGradient id="paint40_linear_20_11155" x1="195.271" y1="107.926" x2="169.436" y2="132.128" gradientUnits="userSpaceOnUse">
<stop stop-color="#298BE6"/>
<stop offset="1" stop-color="#1761A6"/>
</linearGradient>
<linearGradient id="paint41_linear_20_11155" x1="191.415" y1="99.7685" x2="162.714" y2="126.657" gradientUnits="userSpaceOnUse">
<stop stop-color="#298BE6"/>
<stop offset="1" stop-color="#1761A6"/>
</linearGradient>
<linearGradient id="paint42_linear_20_11155" x1="205.539" y1="114.859" x2="182.853" y2="136.114" gradientUnits="userSpaceOnUse">
<stop stop-color="#298BE6"/>
<stop offset="1" stop-color="#1761A6"/>
</linearGradient>
<linearGradient id="paint43_linear_20_11155" x1="191.721" y1="72.4619" x2="189.458" y2="74.5901" gradientUnits="userSpaceOnUse">
<stop stop-color="#E8A476"/>
<stop offset="1" stop-color="#F1B287"/>
</linearGradient>
<linearGradient id="paint44_linear_20_11155" x1="191.051" y1="69.209" x2="191.276" y2="72.192" gradientUnits="userSpaceOnUse">
<stop stop-color="#CF8D61"/>
<stop offset="1" stop-color="#E8A476"/>
</linearGradient>
<linearGradient id="paint45_linear_20_11155" x1="186.079" y1="52.4759" x2="195.609" y2="59.7379" gradientUnits="userSpaceOnUse">
<stop stop-color="#632E40"/>
<stop offset="1" stop-color="#48202D"/>
</linearGradient>
<linearGradient id="paint46_linear_20_11155" x1="189.135" y1="63.2568" x2="187.033" y2="66.2894" gradientUnits="userSpaceOnUse">
<stop stop-color="#E8A476"/>
<stop offset="1" stop-color="#F1B287"/>
</linearGradient>
<linearGradient id="paint47_linear_20_11155" x1="197.989" y1="119.746" x2="187.614" y2="123.251" gradientUnits="userSpaceOnUse">
<stop stop-color="#F7975F"/>
<stop offset="1" stop-color="#FAB07E"/>
</linearGradient>
<linearGradient id="paint48_linear_20_11155" x1="149.63" y1="116.484" x2="182.669" y2="124.209" gradientUnits="userSpaceOnUse">
<stop stop-color="#D2EEFC"/>
<stop offset="1" stop-color="#C3E6F7"/>
</linearGradient>
<linearGradient id="paint49_linear_20_11155" x1="169.135" y1="122.513" x2="169.571" y2="126.283" gradientUnits="userSpaceOnUse">
<stop stop-color="#CF8D61"/>
<stop offset="1" stop-color="#E8A476"/>
</linearGradient>
<linearGradient id="paint50_linear_20_11155" x1="197.985" y1="108.907" x2="176.707" y2="128.839" gradientUnits="userSpaceOnUse">
<stop stop-color="#298BE6"/>
<stop offset="1" stop-color="#1761A6"/>
</linearGradient>
<linearGradient id="paint51_linear_20_11155" x1="198.039" y1="108.416" x2="176.059" y2="129.01" gradientUnits="userSpaceOnUse">
<stop stop-color="#298BE6"/>
<stop offset="1" stop-color="#1761A6"/>
</linearGradient>
</defs>
</svg>
