<svg width="22" height="22" viewBox="0 0 22 22" fill="none" xmlns="http://www.w3.org/2000/svg">
<path d="M11 1.00001C16.523 1.00001 21 5.47701 21 11C21 16.523 16.523 21 11 21C5.477 21 1 16.523 1 11H3C3.00015 12.8812 3.66326 14.7023 4.87283 16.1431C6.0824 17.5839 7.76104 18.5524 9.61383 18.8784C11.4666 19.2043 13.375 18.8669 15.0037 17.9254C16.6324 16.984 17.8772 15.4986 18.5194 13.7304C19.1616 11.9622 19.1601 10.0242 18.5152 8.25692C17.8703 6.48967 16.6233 5.00623 14.9931 4.06722C13.363 3.12821 11.4541 2.79372 9.60182 3.12251C7.74954 3.45129 6.07237 4.42233 4.865 5.86501L7 8.00001H1V2.00001L3.447 4.44601C4.38476 3.36304 5.54473 2.49471 6.84805 1.90009C8.15136 1.30546 9.56745 0.998473 11 1.00001Z" fill="white" stroke="white"/>
</svg>
