<svg width="21" height="25" viewBox="0 0 21 25" fill="none" xmlns="http://www.w3.org/2000/svg">
<path d="M17.7502 0.416672C18.3911 0.416672 19.0058 0.671284 19.459 1.1245C19.9122 1.57771 20.1668 2.1924 20.1668 2.83334V22.1667C20.1668 22.8076 19.9122 23.4223 19.459 23.8755C19.0058 24.3287 18.3911 24.5833 17.7502 24.5833H3.25016C2.60922 24.5833 1.99453 24.3287 1.54132 23.8755C1.08811 23.4223 0.833496 22.8076 0.833496 22.1667V2.83334C0.833496 2.1924 1.08811 1.57771 1.54132 1.1245C1.99453 0.671284 2.60922 0.416672 3.25016 0.416672H17.7502ZM17.7502 2.83334H11.7085V12.5L8.68766 9.78126L5.66683 12.5V2.83334H3.25016V22.1667H17.7502V2.83334Z" fill="#E46F50"/>
</svg>
