<svg width="30" height="22" viewBox="0 0 30 22" fill="none" xmlns="http://www.w3.org/2000/svg">
<mask id="path-1-inside-1_8_19683" fill="white">
<path d="M15.3297 0.354027L29.1685 10.2549C29.2919 10.3433 29.3925 10.4598 29.462 10.5948C29.5314 10.7299 29.5677 10.8794 29.5679 11.0313V11.0335C29.5676 11.1859 29.5309 11.336 29.4609 11.4714C29.3909 11.6067 29.2896 11.7234 29.1655 11.8118L15.3266 21.6488C15.1835 21.7505 15.0152 21.8108 14.8401 21.8231C14.665 21.8354 14.4899 21.7991 14.3341 21.7184C14.178 21.6381 14.0471 21.5163 13.9559 21.3663C13.8646 21.2164 13.8165 21.0442 13.8169 20.8687V16.2392L1.38745 16.2395C1.2619 16.2396 1.13757 16.2149 1.02157 16.1669C0.905577 16.1188 0.800184 16.0484 0.711424 15.9596C0.622663 15.8708 0.552279 15.7654 0.50429 15.6494C0.456303 15.5334 0.431654 15.409 0.431753 15.2835L0.432133 6.71789C0.432083 6.59229 0.456791 6.46791 0.504845 6.35186C0.552898 6.23582 0.623354 6.13038 0.712183 6.04159C0.801014 5.95279 0.906477 5.88238 1.02254 5.83437C1.1386 5.78637 1.26299 5.76171 1.38859 5.76181H13.8165V1.13074C13.8165 0.773546 14.0179 0.445606 14.336 0.280685C14.4923 0.200253 14.6678 0.164537 14.8431 0.177479C15.0185 0.190418 15.1868 0.251513 15.3297 0.354027Z"/>
</mask>
<path d="M15.3297 0.354027L14.1659 1.9806L14.1635 1.97884L15.3297 0.354027ZM29.1685 10.2549L30.3322 8.62835L30.333 8.62894L29.1685 10.2549ZM29.5679 11.0313L31.5679 11.0293V11.0313H29.5679ZM29.5679 11.0335H31.5679L31.5679 11.0377L29.5679 11.0335ZM29.1655 11.8118L30.325 13.4414L30.3242 13.4419L29.1655 11.8118ZM15.3266 21.6488L16.4854 23.279L16.4853 23.279L15.3266 21.6488ZM14.3341 21.7184L15.2492 19.94L15.2541 19.9426L14.3341 21.7184ZM13.8169 20.8687H15.8169L15.8169 20.8727L13.8169 20.8687ZM13.8169 16.2392L13.8168 14.2392L15.8169 14.2391V16.2392H13.8169ZM1.38745 16.2395L1.38666 14.2395H1.38739L1.38745 16.2395ZM0.431753 15.2835L2.43175 15.2836V15.2851L0.431753 15.2835ZM0.432133 6.71789L2.43213 6.71709V6.71797L0.432133 6.71789ZM1.38859 5.76181V7.76181L1.387 7.76181L1.38859 5.76181ZM13.8165 5.76181H15.8165L15.8165 7.76181L13.8165 7.76181L13.8165 5.76181ZM14.336 0.280685L13.4153 -1.49483L13.4209 -1.49773L14.336 0.280685ZM16.4934 -1.27255L30.3322 8.62835L28.0048 11.8815L14.1659 1.9806L16.4934 -1.27255ZM30.333 8.62894C30.7147 8.90226 31.0257 9.26253 31.2404 9.67994L27.6835 11.5098C27.7593 11.6572 27.8692 11.7844 28.0039 11.8809L30.333 8.62894ZM31.2404 9.67994C31.4552 10.0973 31.5674 10.5599 31.5679 11.0293L27.5679 11.0332C27.568 11.199 27.6077 11.3624 27.6835 11.5098L31.2404 9.67994ZM31.5679 11.0313V11.0335H27.5679V11.0313H31.5679ZM31.5679 11.0377C31.5669 11.5084 31.4536 11.972 31.2374 12.39L27.6843 10.5528C27.6081 10.7001 27.5682 10.8635 27.5679 11.0294L31.5679 11.0377ZM31.2374 12.39C31.0213 12.8081 30.7084 13.1685 30.325 13.4414L28.0059 10.1822C27.8708 10.2784 27.7605 10.4054 27.6843 10.5528L31.2374 12.39ZM30.3242 13.4419L16.4854 23.279L14.1679 20.0187L28.0067 10.1817L30.3242 13.4419ZM16.4853 23.279C16.0426 23.5937 15.5217 23.7803 14.9799 23.8182L14.7003 19.828C14.5087 19.8414 14.3245 19.9074 14.1679 20.0187L16.4853 23.279ZM14.9799 23.8182C14.438 23.8562 13.8962 23.7441 13.414 23.4942L15.2541 19.9426C15.0836 19.8542 14.892 19.8146 14.7003 19.828L14.9799 23.8182ZM13.419 23.4968C12.9355 23.248 12.5301 22.8706 12.2475 22.4062L15.6643 20.3265C15.5641 20.1619 15.4205 20.0282 15.2492 19.94L13.419 23.4968ZM12.2475 22.4062C11.9648 21.9418 11.8158 21.4084 11.8169 20.8647L15.8169 20.8727C15.8173 20.6801 15.7645 20.491 15.6643 20.3265L12.2475 22.4062ZM11.8169 20.8687V16.2392H15.8169V20.8687H11.8169ZM13.8169 18.2392L1.38751 18.2395L1.38739 14.2395L13.8168 14.2392L13.8169 18.2392ZM1.38825 18.2395C0.999863 18.2397 0.615246 18.1633 0.256392 18.0147L1.78676 14.319C1.6599 14.2665 1.52394 14.2395 1.38666 14.2395L1.38825 18.2395ZM0.256392 18.0147C-0.102459 17.8661 -0.428493 17.6482 -0.70307 17.3735L2.12592 14.5457C2.02886 14.4486 1.91361 14.3716 1.78676 14.319L0.256392 18.0147ZM-0.70307 17.3735C-0.977652 17.0988 -1.19539 16.7727 -1.34385 16.4138L2.35243 14.8849C2.29995 14.7581 2.22298 14.6428 2.12592 14.5457L-0.70307 17.3735ZM-1.34385 16.4138C-1.4923 16.0549 -1.56856 15.6703 -1.56825 15.2819L2.43175 15.2851C2.43186 15.1478 2.40491 15.0118 2.35243 14.8849L-1.34385 16.4138ZM-1.56825 15.2834L-1.56787 6.7178L2.43213 6.71797L2.43175 15.2836L-1.56825 15.2834ZM-1.56787 6.71868C-1.56802 6.33024 -1.49161 5.94558 -1.34299 5.58668L2.35268 7.11705C2.40519 6.99024 2.43219 6.85433 2.43213 6.71709L-1.56787 6.71868ZM-1.34299 5.58668C-1.19438 5.22779 -0.976479 4.90171 -0.701748 4.62709L2.12612 7.45608C2.22318 7.35905 2.30017 7.24384 2.35268 7.11705L-1.34299 5.58668ZM-0.701748 4.62709C-0.427019 4.35247 -0.100855 4.1347 0.258091 3.98623L1.78699 7.68251C1.91381 7.63006 2.02905 7.55311 2.12612 7.45608L-0.701748 4.62709ZM0.258091 3.98623C0.617044 3.83776 1.00174 3.7615 1.39018 3.76181L1.387 7.76181C1.52424 7.76191 1.66016 7.73497 1.78699 7.68251L0.258091 3.98623ZM1.38859 3.76181H13.8165L13.8165 7.76181H1.38859V3.76181ZM11.8165 5.76181V1.13074H15.8165V5.76181H11.8165ZM11.8165 1.13074C11.8165 0.0174751 12.4423 -0.990278 13.4153 -1.49482L15.2566 2.05619C15.5935 1.88149 15.8165 1.52962 15.8165 1.13074H11.8165ZM13.4209 -1.49773C13.9047 -1.74663 14.4478 -1.85714 14.9903 -1.8171L14.6959 2.17205C14.8878 2.18621 15.0799 2.14713 15.251 2.0591L13.4209 -1.49773ZM14.9903 -1.8171C15.5329 -1.77705 16.0539 -1.58801 16.4958 -1.27079L14.1635 1.97884C14.3198 2.09103 14.504 2.15789 14.6959 2.17205L14.9903 -1.8171Z" fill="white" mask="url(#path-1-inside-1_8_19683)"/>
</svg>
